<svg  id="svg" version="1.1" xmlns="http://www.w3.org/2000/svg" xmlns:xlink="http://www.w3.org/1999/xlink" width="400" height="315.4046997389034"  viewBox="0, 0, 400,315.4046997389034"><g id="svgg"><path id="path0" fill-opacity="0" d="M0.000 157.729 L 0.000 315.457 200.000 315.457 L 400.000 315.457 400.000 157.729 L 400.000 0.000 200.000 0.000 L 0.000 0.000 0.000 157.729 M355.575 136.169 C 356.996 137.455,355.630 139.818,353.855 139.143 C 352.937 138.794,352.537 137.865,352.860 136.830 C 353.257 135.558,354.552 135.243,355.575 136.169 M366.062 136.062 C 367.050 136.784,366.570 137.684,365.139 137.794 C 362.439 138.001,361.754 142.587,364.423 142.587 C 365.266 142.587,366.246 143.160,366.246 143.653 C 366.246 144.249,365.087 145.211,364.675 144.956 C 364.483 144.838,363.968 144.975,363.530 145.262 L 362.735 145.783 362.778 152.465 C 362.830 160.565,362.878 159.830,362.280 160.060 C 360.696 160.667,360.568 160.100,360.568 152.498 L 360.568 145.397 359.623 144.859 C 358.418 144.173,358.417 143.367,359.621 142.744 C 360.499 142.291,360.568 142.129,360.568 140.518 C 360.568 136.657,363.559 134.231,366.062 136.062 M65.457 136.444 C 73.221 138.782,77.185 146.252,74.768 153.989 C 73.810 157.055,73.272 157.725,65.040 166.101 C 60.819 170.394,56.816 174.653,56.142 175.564 C 52.097 181.040,45.563 182.736,39.258 179.948 C 37.420 179.135,19.185 161.201,17.262 158.315 C 9.984 147.396,19.836 133.597,32.110 137.518 C 35.268 138.527,35.956 139.020,40.111 143.253 C 42.402 145.587,44.351 147.316,44.685 147.313 C 45.017 147.310,46.923 145.570,49.113 143.268 C 55.523 136.536,59.813 134.744,65.457 136.444 M134.509 136.461 C 134.614 136.736,134.700 138.644,134.700 140.701 C 134.700 144.969,134.867 145.264,136.538 143.953 C 140.145 141.122,144.051 141.931,145.933 145.899 C 146.903 147.943,147.107 159.196,146.188 159.959 C 145.083 160.876,144.643 159.962,144.567 156.591 C 144.337 146.364,144.148 145.571,141.764 144.784 C 137.400 143.343,134.933 146.816,134.700 154.728 C 134.558 159.565,134.487 160.098,133.975 160.196 C 132.521 160.474,132.492 160.245,132.492 148.252 C 132.492 136.129,132.507 135.962,133.596 135.962 C 133.993 135.962,134.404 136.187,134.509 136.461 M187.063 136.586 C 187.607 137.604,187.455 159.483,186.900 159.944 C 186.268 160.469,185.205 160.016,184.982 159.127 C 184.746 158.187,184.791 158.187,183.353 159.136 C 179.765 161.504,176.171 161.227,173.178 158.352 C 165.399 150.878,174.954 137.556,183.447 144.034 C 184.917 145.156,184.971 145.046,184.893 141.073 C 184.804 136.533,185.863 134.344,187.063 136.586 M265.225 147.991 L 265.307 159.861 264.618 160.042 C 263.758 160.267,263.445 160.079,263.080 159.118 C 262.719 158.169,262.422 158.168,261.302 159.108 C 258.323 161.610,254.272 161.192,251.052 158.052 C 243.499 150.688,252.961 137.562,261.244 143.914 C 263.049 145.298,263.091 145.225,263.091 140.757 C 263.091 136.506,263.287 135.854,264.507 136.029 C 265.129 136.118,265.144 136.369,265.225 147.991 M306.562 136.341 C 307.336 137.115,307.077 159.526,306.289 159.948 C 305.507 160.366,304.732 159.871,304.732 158.952 C 304.732 158.155,304.452 158.201,302.814 159.268 C 293.960 165.035,285.227 152.113,292.924 144.632 C 295.882 141.758,299.469 141.548,303.130 144.035 C 304.743 145.131,304.732 145.152,304.732 140.989 C 304.732 136.433,305.275 135.054,306.562 136.341 M327.063 136.565 C 329.124 137.628,330.459 139.270,330.029 140.213 C 329.537 141.295,328.852 141.214,327.403 139.905 C 324.349 137.146,320.406 139.672,322.238 143.215 C 322.497 143.716,323.882 145.141,325.314 146.382 C 329.696 150.177,330.918 151.988,330.912 154.679 C 330.903 158.838,325.866 162.170,322.303 160.375 C 319.946 159.188,318.012 156.642,318.614 155.518 C 319.103 154.603,319.412 154.719,321.086 156.446 C 323.286 158.717,325.490 158.973,327.226 157.161 C 329.402 154.890,328.727 153.001,324.250 148.830 C 320.002 144.873,319.498 144.113,319.474 141.642 C 319.435 137.463,323.512 134.735,327.063 136.565 M337.012 136.612 C 337.357 137.103,337.427 137.900,337.303 139.887 C 337.025 144.344,337.406 145.363,338.850 144.024 C 341.672 141.408,345.893 141.879,348.103 145.058 L 349.054 146.425 349.159 152.962 C 349.274 160.051,349.129 160.737,347.678 159.960 C 347.090 159.646,347.044 159.234,346.948 153.379 C 346.822 145.706,345.837 143.918,342.120 144.615 C 338.650 145.266,337.518 147.558,337.380 154.214 C 337.321 157.101,337.261 159.554,337.248 159.664 C 337.201 160.054,335.831 160.221,335.427 159.885 C 334.901 159.449,334.822 137.544,335.342 136.572 C 335.766 135.780,336.441 135.796,337.012 136.612 M99.041 137.051 C 100.106 138.334,98.823 139.106,95.613 139.112 C 92.371 139.119,90.536 140.985,90.536 144.273 C 90.536 146.175,90.808 146.304,94.933 146.352 C 98.730 146.396,99.467 146.634,99.305 147.764 C 99.217 148.386,98.993 148.428,95.274 148.512 C 90.402 148.622,90.725 148.215,90.536 154.476 C 90.368 160.062,90.077 160.996,88.828 159.959 C 88.089 159.346,88.081 142.527,88.818 140.763 C 89.468 139.207,90.725 137.907,92.271 137.191 C 93.892 136.441,98.456 136.346,99.041 137.051 M204.147 138.499 C 204.475 139.099,205.958 142.287,207.442 145.584 C 208.926 148.880,210.489 152.323,210.915 153.233 C 211.699 154.909,212.473 155.353,212.835 154.338 C 212.943 154.034,213.790 152.174,214.718 150.204 C 215.645 148.235,216.404 146.570,216.404 146.505 C 216.404 146.439,216.884 145.354,217.471 144.092 C 218.058 142.830,218.980 140.849,219.518 139.690 C 221.154 136.168,221.368 136.513,222.397 144.322 C 222.740 146.924,223.303 151.183,223.649 153.785 C 224.442 159.751,224.442 159.846,223.624 160.106 C 222.384 160.500,221.877 158.918,221.296 152.839 C 221.196 151.798,220.982 150.166,220.821 149.211 C 220.659 148.257,220.442 146.802,220.339 145.978 C 220.075 143.876,219.884 144.041,218.147 147.871 C 217.300 149.736,215.977 152.610,215.205 154.259 C 214.433 155.907,213.541 157.859,213.221 158.596 C 212.902 159.334,212.555 159.937,212.451 159.937 C 212.052 159.937,211.041 159.271,211.041 159.009 C 211.041 158.857,210.403 157.367,209.622 155.698 C 206.838 149.737,205.363 146.460,205.363 146.231 C 205.363 146.103,205.081 145.640,204.736 145.202 C 203.906 144.146,204.016 143.636,202.670 154.793 C 202.130 159.266,201.827 160.252,200.993 160.252 C 199.800 160.252,199.659 159.602,200.128 156.278 C 200.370 154.560,200.804 151.309,201.092 149.054 C 202.775 135.868,202.752 135.948,204.147 138.499 M33.649 141.851 C 33.236 142.264,33.451 144.336,33.992 145.150 C 35.461 147.359,35.925 147.974,37.951 150.393 C 39.149 151.823,40.495 153.172,40.943 153.390 C 41.391 153.607,41.855 154.156,41.975 154.608 C 42.688 157.303,51.639 163.987,53.326 163.084 C 54.795 162.298,46.846 151.420,44.802 151.420 C 44.634 151.420,44.287 151.017,44.033 150.525 C 43.507 149.507,36.683 142.676,35.582 142.065 C 34.779 141.619,33.970 141.529,33.649 141.851 M113.249 142.866 C 113.683 143.068,114.520 143.585,115.110 144.014 C 116.477 145.010,116.600 144.997,116.834 143.827 C 117.001 142.993,117.148 142.873,117.899 142.960 L 118.770 143.060 118.854 151.327 C 118.936 159.420,118.924 159.601,118.282 159.945 C 117.494 160.367,116.719 159.874,116.719 158.952 C 116.719 158.184,116.063 158.199,115.059 158.988 C 106.388 165.808,96.745 151.502,105.159 144.299 C 107.365 142.411,110.924 141.780,113.249 142.866 M130.315 142.960 C 130.748 143.770,129.782 144.795,128.584 144.795 C 126.009 144.795,125.133 146.975,124.979 153.769 C 124.833 160.203,124.444 161.307,122.875 159.738 C 122.010 158.873,122.292 143.644,123.184 143.014 C 123.747 142.617,123.875 142.638,124.341 143.208 C 125.027 144.048,125.593 144.016,127.002 143.060 C 128.466 142.066,129.815 142.025,130.315 142.960 M162.004 143.055 C 165.528 144.825,167.275 147.596,167.275 151.415 C 167.275 161.205,155.368 164.302,151.229 155.588 C 147.740 148.240,155.155 139.615,162.004 143.055 M238.389 142.710 C 239.074 142.952,240.116 143.589,240.704 144.127 C 241.841 145.166,242.154 145.112,242.323 143.849 C 242.409 143.206,242.604 143.060,243.375 143.060 L 244.322 143.060 244.406 151.298 C 244.477 158.315,244.420 159.594,244.015 159.929 C 243.459 160.391,242.636 160.155,242.422 159.471 C 242.339 159.207,242.200 158.766,242.113 158.491 C 241.982 158.077,241.754 158.149,240.773 158.916 C 232.244 165.583,222.634 152.428,230.376 144.686 C 232.554 142.509,235.652 141.745,238.389 142.710 M280.090 142.732 C 280.808 142.985,281.847 143.615,282.400 144.131 C 283.556 145.212,283.757 145.175,284.025 143.834 C 284.193 142.993,284.339 142.873,285.091 142.960 L 285.962 143.060 286.046 151.327 C 286.129 159.420,286.117 159.601,285.474 159.945 C 284.704 160.357,283.912 159.880,283.912 159.004 C 283.912 158.053,283.534 158.040,282.369 158.954 C 273.856 165.627,264.229 152.286,272.063 144.672 C 274.341 142.458,277.292 141.745,280.090 142.732 M380.282 143.073 C 387.016 146.258,387.155 156.577,380.507 159.841 C 374.671 162.707,368.049 157.788,368.540 150.949 C 369.001 144.518,374.930 140.541,380.282 143.073 M355.447 151.298 C 355.536 160.084,355.480 160.430,354.021 160.049 C 353.354 159.874,353.342 159.748,353.249 152.097 C 353.143 143.364,353.218 142.813,354.495 142.960 L 355.363 143.060 355.447 151.298 M108.739 144.963 C 101.754 147.527,103.260 158.360,110.601 158.360 C 117.834 158.360,119.001 147.243,112.019 144.847 C 110.694 144.393,110.252 144.408,108.739 144.963 M157.886 144.778 C 150.434 146.565,151.256 158.349,158.833 158.349 C 165.807 158.349,167.290 146.918,160.568 144.973 C 159.175 144.570,158.851 144.547,157.886 144.778 M177.918 144.774 C 172.817 145.790,170.891 152.482,174.571 156.403 C 179.869 162.049,188.002 154.781,184.133 147.857 C 183.490 146.706,181.070 144.795,180.256 144.795 C 180.039 144.795,179.673 144.741,179.442 144.674 C 179.211 144.608,178.525 144.653,177.918 144.774 M235.489 144.631 C 235.315 144.691,234.786 144.825,234.312 144.930 C 228.924 146.117,228.482 155.712,233.714 157.912 C 240.033 160.570,245.181 152.251,240.588 146.804 C 239.445 145.449,236.616 144.243,235.489 144.631 M255.532 144.838 C 251.226 146.119,249.285 151.632,251.814 155.399 C 255.518 160.916,263.091 158.350,263.091 151.577 C 263.091 147.101,259.297 143.719,255.532 144.838 M275.868 144.971 C 274.052 145.614,272.041 147.966,271.617 149.940 C 270.445 155.408,275.700 160.156,280.309 157.793 C 287.307 154.205,283.208 142.370,275.868 144.971 M296.849 144.894 C 290.252 146.995,291.270 157.804,298.111 158.299 C 305.707 158.848,307.340 146.716,299.921 144.848 C 298.252 144.427,298.318 144.426,296.849 144.894 M375.280 144.931 C 370.594 146.642,369.464 152.471,372.970 156.858 C 374.636 158.943,379.432 158.754,381.323 156.530 C 385.726 151.348,381.248 142.753,375.280 144.931 M206.961 168.150 C 207.493 168.435,207.571 168.831,207.571 171.266 C 207.571 174.003,208.068 175.429,208.678 174.442 C 209.123 173.722,211.476 172.240,212.174 172.240 C 213.768 172.240,213.386 173.515,211.375 174.908 C 209.727 176.050,209.761 176.412,211.693 178.283 C 213.422 179.959,213.615 180.853,212.282 181.009 C 211.660 181.082,211.147 180.743,210.011 179.510 C 208.096 177.431,207.571 177.496,207.571 179.815 C 207.571 180.766,206.533 181.422,205.950 180.840 C 205.613 180.502,205.519 169.218,205.847 168.375 C 206.097 167.730,206.155 167.718,206.961 168.150 M239.432 171.490 C 239.432 174.982,239.812 175.252,242.041 173.344 C 242.854 172.648,243.660 172.240,244.221 172.240 C 245.664 172.240,245.364 173.300,243.533 174.667 C 241.538 176.157,241.492 175.946,244.532 179.285 C 246.580 181.535,244.201 181.729,241.956 179.495 C 239.950 177.500,239.432 177.460,239.432 179.299 C 239.432 180.886,238.917 181.537,238.122 180.956 C 237.259 180.325,237.137 168.899,237.987 168.277 C 239.092 167.468,239.432 168.224,239.432 171.490 M216.972 168.849 C 217.528 170.509,217.028 180.717,216.381 180.922 C 216.050 181.027,215.635 181.025,215.460 180.917 C 215.105 180.697,215.002 168.699,215.352 168.349 C 215.813 167.888,216.747 168.176,216.972 168.849 M221.104 168.849 C 221.488 169.881,221.176 170.395,220.231 170.285 C 219.393 170.188,219.027 169.472,219.364 168.594 C 219.639 167.877,220.807 168.048,221.104 168.849 M235.300 168.849 C 235.684 169.881,235.371 170.395,234.426 170.285 C 233.589 170.188,233.222 169.472,233.560 168.594 C 233.835 167.877,235.002 168.048,235.300 168.849 M267.931 168.822 C 268.585 169.867,266.788 170.923,266.006 169.953 C 265.810 169.710,265.794 169.277,265.965 168.826 C 266.286 167.978,267.400 167.975,267.931 168.822 M229.102 172.206 C 231.040 173.037,231.546 174.208,231.546 177.866 C 231.546 180.483,231.492 180.732,230.883 180.925 C 229.841 181.256,229.585 180.684,229.538 177.918 C 229.445 172.314,225.556 172.187,225.237 177.778 C 225.064 180.796,224.568 181.642,223.494 180.751 C 222.582 179.994,222.950 174.436,223.985 173.329 C 225.552 171.653,227.047 171.326,229.102 172.206 M252.378 172.319 C 254.225 173.250,254.616 174.162,254.664 177.655 C 254.711 180.986,254.561 181.199,251.937 181.527 C 248.573 181.947,246.030 180.252,246.493 177.900 C 246.791 176.391,247.977 175.613,250.227 175.450 C 252.355 175.296,252.576 175.108,251.712 174.180 C 251.046 173.465,249.434 173.271,248.591 173.804 C 248.062 174.139,247.319 173.669,247.319 173.000 C 247.319 171.677,250.307 171.274,252.378 172.319 M262.461 172.187 C 263.257 172.583,263.534 172.908,263.456 173.355 C 263.298 174.252,263.186 174.294,262.036 173.878 C 260.122 173.186,258.360 173.468,258.360 174.467 C 258.360 175.005,259.905 175.702,261.109 175.708 C 262.012 175.712,263.715 176.824,264.048 177.626 C 265.260 180.552,260.593 182.628,257.057 180.735 C 255.570 179.939,256.581 179.016,258.403 179.507 C 260.321 180.023,261.830 179.673,261.830 178.712 C 261.830 178.052,261.641 177.929,260.331 177.739 C 257.565 177.336,256.179 176.285,256.161 174.576 C 256.138 172.306,259.858 170.895,262.461 172.187 M220.790 172.530 C 221.311 172.859,221.383 180.321,220.870 180.833 C 219.782 181.921,219.402 180.984,219.312 176.985 C 219.202 172.153,219.374 171.633,220.790 172.530 M234.832 172.431 C 235.555 172.709,235.579 180.594,234.858 180.871 C 233.616 181.348,233.438 180.844,233.438 176.843 C 233.438 172.663,233.655 171.979,234.832 172.431 M267.653 172.745 C 268.399 173.491,268.231 180.375,267.455 180.863 C 266.280 181.603,265.931 180.646,265.931 176.681 C 265.931 172.430,266.359 171.451,267.653 172.745 M249.290 177.500 C 247.839 178.512,248.722 179.811,250.863 179.811 C 252.605 179.811,253.278 178.556,252.104 177.494 C 251.389 176.846,250.224 176.848,249.290 177.500 " stroke="none" fill="#fbfbfb" fill-rule="evenodd"></path><path id="path1" d="M353.434 135.888 C 352.919 136.227,352.608 137.442,352.845 138.188 C 353.391 139.909,356.151 139.402,356.151 137.581 C 356.151 136.149,354.551 135.152,353.434 135.888 M362.182 136.161 C 361.159 136.878,360.568 138.473,360.568 140.518 C 360.568 142.129,360.499 142.291,359.621 142.744 C 358.417 143.367,358.418 144.173,359.623 144.859 L 360.568 145.397 360.568 152.498 C 360.568 160.100,360.696 160.667,362.280 160.060 C 362.878 159.830,362.830 160.565,362.778 152.465 L 362.735 145.783 363.530 145.262 C 363.968 144.975,364.483 144.838,364.675 144.956 C 365.087 145.211,366.246 144.249,366.246 143.653 C 366.246 143.160,365.266 142.587,364.423 142.587 C 361.754 142.587,362.439 138.001,365.139 137.794 C 366.570 137.684,367.050 136.784,366.062 136.062 C 365.274 135.486,363.066 135.542,362.182 136.161 M57.687 136.702 C 54.778 137.675,53.521 138.638,49.113 143.268 C 46.923 145.570,45.017 147.310,44.685 147.313 C 44.351 147.316,42.402 145.587,40.111 143.253 C 35.956 139.020,35.268 138.527,32.110 137.518 C 19.836 133.597,9.984 147.396,17.262 158.315 C 19.185 161.201,37.420 179.135,39.258 179.948 C 45.563 182.736,52.097 181.040,56.142 175.564 C 56.816 174.653,60.819 170.394,65.040 166.101 C 73.272 157.725,73.810 157.055,74.768 153.989 C 78.164 143.116,68.313 133.147,57.687 136.702 M132.684 136.461 C 132.228 137.648,132.477 159.531,132.950 159.924 C 134.299 161.044,134.542 160.357,134.560 155.359 L 134.578 150.631 134.403 155.205 C 134.237 159.510,134.190 159.779,133.596 159.779 C 132.921 159.779,132.406 137.184,133.066 136.524 C 134.038 135.552,134.385 136.648,134.385 140.689 C 134.385 145.622,134.675 146.135,136.472 144.389 C 139.457 141.490,144.112 142.339,145.719 146.075 C 146.577 148.070,146.604 159.779,145.751 159.779 C 145.496 159.779,145.099 159.424,144.870 158.991 L 144.453 158.202 144.545 158.958 C 144.670 159.983,145.529 160.506,146.188 159.959 C 147.107 159.196,146.903 147.943,145.933 145.899 C 144.051 141.931,140.145 141.122,136.538 143.953 C 134.867 145.264,134.700 144.969,134.700 140.701 C 134.700 136.426,134.592 135.962,133.596 135.962 C 133.200 135.962,132.789 136.187,132.684 136.461 M185.166 136.771 C 184.996 137.216,184.884 138.884,184.915 140.478 L 184.972 143.375 185.152 140.129 C 185.324 137.009,185.575 136.302,186.514 136.282 C 186.892 136.275,186.877 136.011,187.064 145.899 L 187.242 155.363 187.312 146.273 C 187.356 140.475,187.263 136.962,187.055 136.572 C 186.583 135.691,185.534 135.801,185.166 136.771 M263.482 136.329 C 263.212 136.598,263.091 137.968,263.091 140.757 C 263.091 145.225,263.049 145.298,261.244 143.914 C 254.818 138.987,246.331 146.119,248.724 154.435 C 249.261 156.298,252.318 159.937,253.348 159.937 C 253.554 159.937,253.148 159.521,252.446 159.012 C 245.833 154.222,248.309 143.416,256.194 142.655 C 258.060 142.474,259.753 143.034,261.394 144.373 C 263.172 145.825,263.367 145.480,263.476 140.674 C 263.562 136.877,263.587 136.748,264.274 136.650 L 264.984 136.549 264.984 148.049 C 264.984 159.168,264.964 159.553,264.372 159.708 C 263.655 159.895,263.407 159.713,263.407 159.001 C 263.407 157.814,262.720 157.730,261.309 158.743 C 260.555 159.285,260.003 159.792,260.082 159.872 C 260.161 159.951,260.668 159.643,261.210 159.188 C 262.424 158.166,262.714 158.155,263.080 159.118 C 263.445 160.079,263.758 160.267,264.618 160.042 L 265.307 159.861 265.225 147.991 C 265.144 136.369,265.129 136.118,264.507 136.029 C 264.158 135.979,263.697 136.114,263.482 136.329 M305.058 136.572 C 304.879 136.908,304.732 138.895,304.732 140.989 C 304.732 145.188,304.766 145.129,302.991 143.987 L 301.735 143.180 302.827 144.145 C 304.847 145.930,305.047 145.663,305.047 141.193 C 305.047 136.670,305.159 136.146,306.025 136.610 C 306.875 137.065,306.970 159.422,306.123 159.746 C 305.415 160.018,305.047 159.706,305.047 158.833 C 305.047 157.624,304.503 157.611,302.908 158.783 C 301.154 160.070,298.639 160.664,296.935 160.193 C 295.361 159.759,295.267 160.132,296.832 160.601 C 298.492 161.098,300.791 160.586,302.814 159.268 C 304.452 158.201,304.732 158.155,304.732 158.952 C 304.732 159.871,305.507 160.366,306.289 159.948 C 307.077 159.526,307.336 137.115,306.562 136.341 C 306.009 135.788,305.431 135.877,305.058 136.572 M322.323 136.628 C 320.486 137.558,319.453 139.377,319.474 141.642 C 319.498 144.113,320.002 144.873,324.250 148.830 C 327.911 152.241,328.630 153.399,328.273 155.312 C 328.119 156.134,328.147 156.206,328.432 155.722 C 329.403 154.072,327.951 151.531,324.256 148.413 C 318.589 143.631,318.064 138.324,323.101 136.736 C 325.938 135.842,330.448 138.054,329.821 140.032 C 329.524 140.965,328.663 140.854,327.601 139.746 C 326.548 138.647,324.874 138.081,323.872 138.485 C 323.331 138.703,323.502 138.765,324.684 138.781 C 325.937 138.798,326.380 138.981,327.403 139.905 C 329.650 141.935,331.396 140.461,329.313 138.293 C 327.119 136.008,324.689 135.430,322.323 136.628 M335.342 136.572 C 334.822 137.544,334.901 159.449,335.427 159.885 C 336.466 160.747,337.839 159.352,337.446 157.833 C 337.363 157.509,337.281 157.710,337.261 158.291 C 337.225 159.285,336.240 160.119,335.568 159.724 C 335.252 159.538,335.272 137.175,335.588 136.677 C 335.950 136.107,337.214 137.070,337.261 137.952 C 337.290 138.509,337.326 138.533,337.444 138.076 C 337.808 136.673,335.986 135.370,335.342 136.572 M355.657 136.994 C 355.905 137.704,355.847 137.984,355.347 138.484 C 354.105 139.725,352.467 138.172,353.326 136.568 C 353.840 135.606,355.263 135.867,355.657 136.994 M365.868 136.341 C 366.611 137.085,366.285 137.539,365.007 137.539 C 363.379 137.539,362.461 138.627,362.461 140.556 C 362.461 142.143,363.068 142.902,364.337 142.902 C 366.409 142.902,366.140 144.218,363.989 144.605 C 362.431 144.885,362.422 144.929,362.480 152.618 C 362.532 159.572,362.386 160.476,361.354 159.619 C 360.922 159.261,360.856 158.306,360.885 152.866 C 360.903 149.381,360.911 146.219,360.901 145.838 C 360.890 145.415,360.515 144.929,359.937 144.587 C 358.793 143.912,358.755 143.627,359.744 143.176 C 360.647 142.765,361.221 141.636,360.986 140.736 C 360.203 137.744,363.922 134.395,365.868 136.341 M96.032 136.889 C 98.943 137.072,99.490 137.374,98.572 138.291 C 98.198 138.665,97.464 138.801,95.815 138.801 C 93.911 138.801,93.387 138.926,92.391 139.616 C 89.729 141.461,89.332 146.711,91.856 146.683 C 92.085 146.680,91.916 146.500,91.483 146.281 C 89.844 145.457,90.368 141.714,92.351 140.080 C 93.387 139.225,93.751 139.116,95.577 139.112 C 98.179 139.107,98.983 138.889,99.227 138.121 C 99.608 136.921,98.863 136.589,95.939 136.653 L 93.218 136.712 96.032 136.889 M91.956 137.276 C 90.951 137.830,89.572 139.201,89.089 140.126 C 88.331 141.576,88.596 141.467,89.669 139.886 C 90.233 139.055,90.976 138.223,91.321 138.036 C 92.533 137.381,93.197 136.909,92.894 136.918 C 92.725 136.923,92.303 137.084,91.956 137.276 M202.689 137.618 C 202.536 138.083,201.893 142.376,201.893 142.936 C 201.893 144.011,202.238 142.733,202.546 140.520 C 203.080 136.681,203.144 136.721,205.658 142.429 C 206.422 144.164,207.186 145.726,207.355 145.899 C 207.753 146.306,207.635 146.006,205.871 142.114 C 203.713 137.356,203.074 136.453,202.689 137.618 M220.631 137.603 C 220.098 138.354,219.243 139.999,219.246 140.269 C 219.248 140.416,219.620 139.917,220.073 139.161 C 220.686 138.138,220.967 137.895,221.170 138.214 C 221.319 138.450,221.441 138.502,221.441 138.328 C 221.441 137.622,220.938 137.171,220.631 137.603 M322.103 139.717 C 320.805 141.540,321.676 143.818,324.555 146.135 C 327.099 148.182,328.599 149.644,329.455 150.912 C 329.911 151.586,330.284 152.020,330.284 151.875 C 330.284 151.183,328.443 149.111,325.845 146.878 C 321.734 143.344,320.971 141.751,322.419 139.717 C 322.778 139.214,323.000 138.801,322.914 138.801 C 322.827 138.801,322.462 139.214,322.103 139.717 M336.988 139.905 C 336.992 140.599,337.056 140.846,337.132 140.454 C 337.207 140.061,337.204 139.494,337.125 139.192 C 337.046 138.890,336.985 139.211,336.988 139.905 M221.508 139.905 C 221.504 140.426,221.699 141.845,221.942 143.060 L 222.382 145.268 222.212 143.218 C 221.999 140.654,221.520 138.399,221.508 139.905 M218.663 141.496 C 218.135 142.656,218.236 142.904,218.807 141.849 C 219.074 141.357,219.233 140.895,219.161 140.823 C 219.089 140.750,218.865 141.054,218.663 141.496 M35.582 142.065 C 36.683 142.676,43.507 149.507,44.033 150.525 C 44.287 151.017,44.634 151.420,44.802 151.420 C 46.846 151.420,54.795 162.298,53.326 163.084 C 51.639 163.987,42.688 157.303,41.975 154.608 C 41.855 154.156,41.391 153.607,40.943 153.390 C 40.495 153.172,39.149 151.823,37.951 150.393 C 35.925 147.974,35.461 147.359,33.992 145.150 C 32.552 142.983,33.594 140.961,35.582 142.065 M88.401 142.587 C 88.401 143.194,88.466 143.442,88.546 143.139 C 88.625 142.835,88.625 142.338,88.546 142.035 C 88.466 141.731,88.401 141.979,88.401 142.587 M108.360 142.572 C 107.919 142.775,108.172 142.809,109.197 142.686 C 111.049 142.463,113.651 143.073,114.405 143.906 C 115.723 145.363,116.670 145.546,116.966 144.404 C 117.151 143.689,117.419 143.375,117.843 143.375 C 118.543 143.375,118.999 159.566,118.302 159.669 C 117.352 159.809,117.185 159.702,117.038 158.859 C 116.817 157.598,116.395 157.554,115.018 158.648 C 111.799 161.206,107.589 160.934,104.860 157.992 C 103.631 156.666,102.531 154.837,102.499 154.064 C 102.482 153.672,102.416 153.617,102.303 153.900 C 102.048 154.541,103.318 156.865,104.703 158.292 C 107.588 161.265,111.805 161.548,115.059 158.988 C 116.063 158.199,116.719 158.184,116.719 158.952 C 116.719 159.874,117.494 160.367,118.282 159.945 C 118.924 159.601,118.936 159.420,118.854 151.327 L 118.770 143.060 117.899 142.960 C 117.148 142.873,117.001 142.993,116.834 143.827 C 116.600 144.997,116.477 145.010,115.110 144.014 C 113.052 142.516,109.931 141.849,108.360 142.572 M127.002 143.060 C 125.593 144.016,125.027 144.048,124.341 143.208 C 123.875 142.638,123.747 142.617,123.184 143.014 C 122.292 143.644,122.010 158.873,122.875 159.738 C 124.453 161.317,124.834 160.210,124.975 153.628 C 125.044 150.418,125.006 148.218,124.890 148.738 C 124.775 149.259,124.664 151.925,124.643 154.663 C 124.604 159.828,124.382 160.614,123.231 159.659 C 122.871 159.360,122.768 151.646,123.017 143.646 C 123.041 142.878,123.994 142.915,124.350 143.697 C 124.805 144.695,125.088 144.675,126.782 143.527 C 128.333 142.477,129.368 142.337,129.997 143.094 C 130.478 143.673,129.701 144.479,128.661 144.479 C 127.385 144.479,125.237 146.368,125.237 147.490 C 125.237 147.650,125.594 147.254,126.031 146.611 C 126.892 145.344,127.684 144.795,128.651 144.795 C 129.791 144.795,130.738 143.751,130.315 142.960 C 129.815 142.025,128.466 142.066,127.002 143.060 M156.061 142.754 C 155.403 142.996,154.268 143.784,153.537 144.507 L 152.208 145.822 153.785 144.541 C 156.067 142.689,158.703 142.192,161.686 143.050 C 162.025 143.147,161.877 143.019,161.356 142.763 C 160.171 142.183,157.630 142.178,156.061 142.754 M176.662 142.576 C 176.358 142.769,176.825 142.807,178.000 142.685 C 180.107 142.468,182.130 143.097,183.288 144.330 C 184.421 145.535,185.939 145.136,185.382 143.780 C 185.278 143.525,185.136 143.638,185.000 144.085 C 184.730 144.974,184.675 144.971,183.389 143.990 C 181.337 142.425,178.008 141.725,176.662 142.576 M233.912 142.579 C 233.525 142.740,233.965 142.777,235.049 142.675 C 237.237 142.468,238.849 142.966,240.587 144.385 C 241.512 145.140,241.969 145.344,242.134 145.077 C 242.268 144.860,242.236 144.780,242.059 144.889 C 241.888 144.995,241.273 144.646,240.691 144.115 C 238.943 142.518,235.777 141.801,233.912 142.579 M275.552 142.579 C 275.165 142.740,275.606 142.777,276.690 142.675 C 278.898 142.466,280.498 142.962,282.287 144.410 C 283.726 145.574,284.252 145.462,284.191 144.006 C 284.168 143.459,284.137 143.472,283.959 144.104 C 283.694 145.047,283.430 145.033,282.287 144.014 C 280.615 142.524,277.350 141.829,275.552 142.579 M295.665 142.795 C 293.262 143.645,290.167 147.353,290.253 149.278 C 290.279 149.865,290.328 149.824,290.516 149.054 C 291.624 144.503,296.214 141.798,300.789 143.000 C 301.695 143.238,301.690 143.228,300.674 142.760 C 299.363 142.157,297.430 142.170,295.665 142.795 M340.747 142.782 C 340.168 143.034,339.318 143.591,338.857 144.018 C 337.887 144.918,337.539 144.993,337.539 144.303 C 337.539 144.033,337.397 143.899,337.224 144.006 C 336.763 144.291,336.839 144.788,337.376 144.994 C 337.633 145.093,338.375 144.755,339.032 144.240 C 342.197 141.756,346.023 142.286,348.065 145.491 C 348.827 146.685,349.310 159.018,348.622 159.706 C 347.641 160.688,347.335 159.354,347.239 153.674 L 347.145 148.107 347.074 153.853 C 347.006 159.373,347.029 159.613,347.654 159.948 C 349.132 160.739,349.274 160.080,349.159 152.962 L 349.054 146.425 348.103 145.058 C 346.410 142.623,343.309 141.663,340.747 142.782 M374.872 142.513 C 374.672 142.640,375.617 142.744,376.972 142.744 C 378.326 142.744,379.271 142.640,379.071 142.513 C 378.871 142.385,377.926 142.281,376.972 142.281 C 376.017 142.281,375.073 142.385,374.872 142.513 M105.624 143.940 C 104.155 145.058,102.199 147.988,102.222 149.040 C 102.231 149.438,102.400 149.225,102.664 148.485 C 103.331 146.613,104.759 144.767,106.292 143.793 C 107.063 143.303,107.536 142.902,107.342 142.902 C 107.148 142.902,106.375 143.369,105.624 143.940 M174.719 143.552 L 173.975 144.201 174.921 143.647 C 176.167 142.918,176.185 142.902,175.797 142.902 C 175.614 142.902,175.129 143.195,174.719 143.552 M217.206 144.637 C 216.124 147.082,216.222 147.287,217.367 144.978 C 217.877 143.950,218.230 143.046,218.151 142.967 C 218.072 142.888,217.647 143.640,217.206 144.637 M231.499 143.677 C 230.374 144.441,228.391 146.839,228.391 147.435 C 228.391 147.604,228.840 147.065,229.387 146.238 C 229.935 145.411,231.036 144.325,231.832 143.824 C 232.629 143.324,233.136 142.911,232.960 142.908 C 232.783 142.905,232.126 143.251,231.499 143.677 M242.397 143.344 C 242.295 143.610,242.285 144.010,242.374 144.232 C 242.464 144.455,242.548 144.318,242.562 143.927 C 242.581 143.386,242.775 143.218,243.381 143.218 L 244.175 143.218 244.090 151.498 C 244.009 159.541,243.988 159.779,243.375 159.779 C 242.968 159.779,242.710 159.536,242.647 159.092 C 242.462 157.793,241.880 157.735,240.415 158.867 C 239.654 159.456,239.136 159.937,239.265 159.937 C 239.394 159.937,240.052 159.499,240.727 158.964 C 241.739 158.163,241.983 158.080,242.113 158.491 C 242.200 158.766,242.339 159.207,242.422 159.471 C 242.636 160.155,243.459 160.391,244.015 159.929 C 244.420 159.594,244.477 158.315,244.406 151.298 L 244.322 143.060 243.452 142.960 C 242.892 142.896,242.517 143.032,242.397 143.344 M284.858 143.170 L 285.647 143.404 285.731 151.477 C 285.806 158.650,285.758 159.572,285.308 159.744 C 284.595 160.018,284.227 159.708,284.227 158.833 C 284.227 158.420,284.079 157.990,283.899 157.878 C 283.586 157.685,280.695 159.651,280.931 159.896 C 280.993 159.960,281.598 159.574,282.276 159.037 C 283.529 158.045,283.912 158.037,283.912 159.004 C 283.912 159.880,284.704 160.357,285.474 159.945 C 286.117 159.601,286.129 159.420,286.046 151.327 L 285.962 143.060 285.016 142.998 C 284.134 142.940,284.124 142.952,284.858 143.170 M353.391 143.591 C 353.261 143.993,353.236 147.587,353.336 151.577 L 353.517 158.833 353.531 151.319 C 353.545 143.714,353.662 142.921,354.711 143.324 C 355.142 143.489,355.205 144.544,355.205 151.549 C 355.205 159.804,355.134 160.259,353.950 159.625 C 353.599 159.437,353.312 159.414,353.312 159.574 C 353.312 159.733,353.624 159.945,354.006 160.045 C 355.482 160.431,355.537 160.100,355.447 151.298 L 355.363 143.060 354.495 142.960 C 353.820 142.882,353.576 143.022,353.391 143.591 M372.530 143.662 C 369.241 145.897,367.566 150.895,368.918 154.437 C 369.220 155.227,369.525 155.816,369.596 155.746 C 369.667 155.675,369.510 155.103,369.247 154.475 C 367.799 151.010,369.645 145.692,372.993 143.686 C 373.707 143.258,374.146 142.907,373.969 142.905 C 373.793 142.904,373.145 143.244,372.530 143.662 M163.624 144.298 C 165.227 145.690,166.246 147.281,166.763 149.196 C 167.067 150.323,167.154 150.442,167.171 149.753 C 167.215 147.963,165.437 145.261,163.249 143.788 C 162.708 143.424,162.869 143.643,163.624 144.298 M272.093 144.643 C 270.684 146.012,269.398 148.219,269.430 149.211 C 269.438 149.472,269.643 149.146,269.884 148.488 C 270.465 146.907,271.450 145.496,272.840 144.255 C 273.464 143.697,273.881 143.236,273.767 143.230 C 273.653 143.223,272.900 143.859,272.093 144.643 M381.793 144.208 C 382.450 144.791,383.332 145.836,383.755 146.530 C 384.177 147.224,384.527 147.636,384.533 147.445 C 384.550 146.838,382.745 144.589,381.653 143.855 C 380.650 143.181,380.656 143.198,381.793 144.208 M201.672 145.110 C 201.672 146.065,201.731 146.455,201.803 145.978 C 201.876 145.501,201.876 144.720,201.803 144.243 C 201.731 143.766,201.672 144.156,201.672 145.110 M88.459 149.527 C 88.459 152.737,88.506 154.050,88.563 152.445 C 88.620 150.840,88.620 148.214,88.563 146.609 C 88.506 145.004,88.459 146.317,88.459 149.527 M111.356 144.628 C 113.032 145.186,113.155 145.203,112.760 144.820 C 112.595 144.659,111.893 144.445,111.199 144.342 L 109.937 144.156 111.356 144.628 M138.811 144.515 C 136.799 145.318,134.695 147.839,134.703 149.435 C 134.705 149.746,135.042 149.290,135.452 148.423 C 136.433 146.349,137.796 145.113,139.654 144.613 C 140.555 144.371,140.848 144.206,140.379 144.205 C 139.945 144.205,139.239 144.344,138.811 144.515 M172.473 145.505 C 171.362 146.894,170.334 149.247,170.365 150.326 C 170.374 150.667,170.673 150.024,171.028 148.896 C 171.383 147.768,172.165 146.242,172.766 145.505 C 173.367 144.767,173.788 144.164,173.702 144.164 C 173.615 144.164,173.062 144.767,172.473 145.505 M203.785 144.532 C 203.785 144.734,203.875 144.810,203.985 144.700 C 204.188 144.498,205.363 145.804,205.363 146.231 C 205.363 146.620,208.929 154.268,209.052 154.144 C 209.116 154.081,208.511 152.626,207.708 150.910 C 206.905 149.195,206.045 147.231,205.797 146.546 C 205.157 144.778,203.785 143.404,203.785 144.532 M218.944 145.393 C 218.588 146.091,218.301 146.846,218.307 147.069 C 218.312 147.293,218.614 146.802,218.978 145.978 C 219.675 144.398,220.059 144.118,220.277 145.032 C 220.385 145.481,220.403 145.471,220.378 144.977 C 220.322 143.888,219.606 144.096,218.944 145.393 M341.334 144.515 C 339.586 145.213,337.496 147.407,337.553 148.486 C 337.560 148.625,337.808 148.288,338.105 147.738 C 339.840 144.517,343.948 143.587,345.856 145.983 C 346.180 146.389,346.513 146.652,346.598 146.567 C 347.646 145.519,343.181 143.778,341.334 144.515 M107.187 145.401 C 105.605 146.405,104.081 148.635,104.133 149.870 C 104.162 150.537,104.194 150.515,104.398 149.685 C 104.929 147.526,106.545 145.769,108.739 144.963 C 109.518 144.678,109.710 144.516,109.289 144.502 C 108.932 144.489,107.987 144.894,107.187 145.401 M142.023 144.842 C 143.879 145.521,144.305 146.908,144.479 152.839 L 144.637 158.202 144.861 154.732 C 145.272 148.382,144.016 144.382,141.649 144.504 C 141.384 144.518,141.552 144.670,142.023 144.842 M156.309 145.005 C 153.798 146.331,152.618 148.265,152.498 151.251 L 152.408 153.470 152.647 151.420 C 153.090 147.626,154.733 145.542,157.886 144.774 C 158.743 144.566,158.758 144.542,158.044 144.524 C 157.610 144.514,156.830 144.730,156.309 145.005 M159.332 144.593 C 159.405 144.655,159.890 144.801,160.410 144.918 C 161.101 145.072,161.229 145.043,160.883 144.809 C 160.457 144.521,159.016 144.320,159.332 144.593 M175.523 145.525 C 173.663 146.807,172.240 149.323,172.240 151.328 C 172.240 152.557,173.101 155.395,173.387 155.109 C 173.455 155.042,173.295 154.472,173.033 153.844 C 171.531 150.250,174.066 145.543,177.918 144.773 L 179.022 144.552 178.031 144.516 C 177.382 144.492,176.517 144.840,175.523 145.525 M180.242 144.805 C 187.419 146.955,186.269 158.360,178.876 158.360 C 177.085 158.360,176.413 158.060,174.633 156.467 L 173.399 155.363 174.059 156.327 C 177.761 161.734,186.204 157.507,185.350 150.674 C 184.989 147.782,182.083 144.424,180.013 144.507 C 179.473 144.528,179.519 144.588,180.242 144.805 M233.596 144.846 C 232.057 145.693,229.606 148.638,230.060 149.093 C 230.137 149.169,230.377 148.803,230.594 148.279 C 231.102 147.051,233.172 145.182,234.298 144.933 C 235.697 144.624,235.858 144.530,235.016 144.514 C 234.582 144.506,233.943 144.655,233.596 144.846 M236.619 144.593 C 236.692 144.655,237.177 144.801,237.697 144.918 C 238.388 145.072,238.516 145.043,238.170 144.809 C 237.744 144.521,236.303 144.320,236.619 144.593 M254.890 144.809 C 254.544 145.043,254.672 145.072,255.363 144.918 C 256.523 144.658,256.774 144.478,255.967 144.484 C 255.635 144.487,255.150 144.633,254.890 144.809 M258.600 144.901 C 263.332 146.617,264.656 152.898,261.104 156.782 L 260.095 157.885 261.160 156.939 C 265.240 153.316,262.909 144.211,257.975 144.503 C 257.753 144.517,258.034 144.695,258.600 144.901 M275.237 144.919 C 272.533 146.104,270.473 150.164,271.273 152.732 L 271.602 153.785 271.441 152.646 C 271.012 149.590,273.112 145.947,275.868 144.971 C 276.562 144.725,276.916 144.520,276.656 144.514 C 276.396 144.509,275.757 144.691,275.237 144.919 M279.647 144.984 C 280.338 145.236,281.402 145.901,282.012 146.460 L 283.122 147.476 282.176 146.412 C 281.260 145.381,279.623 144.456,278.796 144.502 C 278.573 144.514,278.956 144.731,279.647 144.984 M300.131 144.871 C 307.411 146.796,305.534 158.836,298.038 158.294 C 296.729 158.199,296.345 158.250,296.732 158.466 C 298.926 159.694,302.900 157.817,304.444 154.823 C 306.497 150.842,303.302 144.274,299.427 144.512 C 299.135 144.530,299.452 144.692,300.131 144.871 M374.290 145.066 C 371.628 146.708,370.642 148.562,370.716 151.783 L 370.769 154.101 370.956 151.577 C 371.220 148.005,372.591 145.900,375.280 144.942 C 375.989 144.689,376.235 144.502,375.868 144.495 C 375.521 144.488,374.811 144.745,374.290 145.066 M378.670 144.944 C 382.086 146.161,384.174 150.774,382.815 154.101 C 382.608 154.606,382.638 154.657,382.963 154.356 C 385.310 152.187,381.406 144.411,378.013 144.493 C 377.700 144.501,377.996 144.704,378.670 144.944 M114.245 146.136 C 118.937 150.434,116.555 158.360,110.570 158.360 C 108.159 158.360,106.427 157.256,104.829 154.702 C 104.623 154.371,104.445 154.257,104.435 154.448 C 104.394 155.218,106.336 157.370,107.642 158.002 C 114.575 161.358,120.274 152.269,114.940 146.365 C 114.317 145.675,113.654 145.110,113.466 145.110 C 113.279 145.110,113.630 145.572,114.245 146.136 M162.493 146.111 C 167.125 150.392,164.794 158.334,158.899 158.354 C 156.374 158.363,154.015 156.713,153.032 154.249 C 152.830 153.742,152.714 153.654,152.701 153.998 C 152.690 154.288,153.149 155.139,153.721 155.888 C 157.821 161.264,165.142 158.500,165.142 151.577 C 165.142 148.627,163.990 146.360,161.987 145.372 C 161.640 145.201,161.868 145.533,162.493 146.111 M203.556 146.372 C 203.556 147.153,203.617 147.472,203.693 147.082 C 203.768 146.692,203.768 146.053,203.693 145.662 C 203.617 145.272,203.556 145.591,203.556 146.372 M239.646 145.908 C 241.335 147.239,242.068 148.764,242.291 151.408 L 242.492 153.785 242.539 151.804 C 242.604 149.096,240.491 145.099,239.001 145.114 C 238.804 145.116,239.095 145.473,239.646 145.908 M252.834 146.104 C 252.212 146.650,251.497 147.495,251.246 147.981 C 250.481 149.460,250.734 149.421,251.691 147.912 C 252.187 147.129,253.004 146.183,253.505 145.810 C 254.006 145.436,254.315 145.126,254.191 145.120 C 254.067 145.115,253.456 145.557,252.834 146.104 M294.598 145.860 C 294.142 146.261,293.524 147.002,293.224 147.506 L 292.678 148.423 293.491 147.476 C 293.938 146.956,294.698 146.211,295.180 145.822 C 295.662 145.432,295.915 145.117,295.741 145.122 C 295.568 145.127,295.053 145.459,294.598 145.860 M222.556 147.319 C 222.628 148.273,222.912 150.757,223.186 152.839 C 224.129 159.993,224.108 159.503,223.487 159.741 C 222.668 160.056,222.534 159.762,222.093 156.686 C 221.875 155.158,221.623 153.982,221.534 154.071 C 221.255 154.350,222.161 159.441,222.570 159.890 C 223.096 160.469,224.290 160.057,224.290 159.297 C 224.290 158.567,223.082 149.346,222.700 147.161 L 222.424 145.584 222.556 147.319 M151.807 146.451 C 151.274 147.104,150.472 149.243,150.490 149.960 C 150.499 150.329,150.769 149.811,151.090 148.808 C 151.410 147.806,151.846 146.777,152.058 146.521 C 152.270 146.266,152.372 146.057,152.285 146.057 C 152.199 146.057,151.983 146.234,151.807 146.451 M93.616 146.595 C 94.008 146.671,94.576 146.668,94.877 146.589 C 95.179 146.510,94.858 146.448,94.164 146.452 C 93.470 146.455,93.223 146.520,93.616 146.595 M98.107 146.583 C 99.196 147.042,99.312 147.866,98.344 148.255 L 97.634 148.540 98.354 148.560 C 99.718 148.598,99.603 146.625,98.231 146.457 C 97.807 146.405,97.771 146.441,98.107 146.583 M207.696 146.688 C 207.960 147.629,209.880 151.740,209.999 151.620 C 210.067 151.553,209.546 150.309,208.843 148.856 C 208.139 147.403,207.623 146.427,207.696 146.688 M220.572 147.319 C 220.570 147.926,220.681 148.778,220.820 149.211 C 221.175 150.319,221.187 149.161,220.838 147.476 L 220.577 146.215 220.572 147.319 M200.946 150.158 C 200.717 151.894,200.599 153.386,200.686 153.473 C 200.773 153.560,201.032 152.210,201.262 150.473 C 201.492 148.737,201.609 147.245,201.522 147.158 C 201.435 147.071,201.176 148.421,200.946 150.158 M214.898 149.766 C 214.182 151.283,213.374 153.056,213.103 153.707 C 212.571 154.982,211.915 155.218,211.348 154.338 C 211.017 153.822,211.005 153.824,211.175 154.363 C 211.275 154.681,211.356 155.001,211.356 155.073 C 211.356 155.599,212.926 155.095,213.112 154.509 C 213.233 154.127,214.028 152.333,214.877 150.523 C 215.727 148.713,216.372 147.181,216.311 147.120 C 216.249 147.059,215.614 148.250,214.898 149.766 M217.493 148.610 C 217.215 149.146,217.044 149.641,217.113 149.710 C 217.181 149.778,217.473 149.339,217.762 148.734 C 218.410 147.374,218.186 147.270,217.493 148.610 M282.965 147.673 C 282.965 147.772,283.190 148.303,283.465 148.854 C 283.980 149.886,283.985 153.101,283.474 154.416 L 283.229 155.047 283.752 154.416 C 284.469 153.550,284.310 149.399,283.516 148.274 C 283.213 147.845,282.965 147.574,282.965 147.673 M202.871 150.513 C 202.650 152.010,202.533 153.571,202.611 153.983 C 202.713 154.521,202.765 154.414,202.796 153.607 C 202.820 152.988,202.990 151.666,203.174 150.670 C 203.358 149.673,203.456 148.618,203.391 148.325 C 203.326 148.032,203.092 149.016,202.871 150.513 M384.739 148.580 C 384.863 149.014,385.073 150.292,385.206 151.420 L 385.447 153.470 385.356 151.237 C 385.306 150.009,385.096 148.731,384.889 148.398 C 384.552 147.855,384.536 147.874,384.739 148.580 M92.674 148.496 C 93.416 148.563,94.552 148.562,95.198 148.494 C 95.844 148.427,95.237 148.372,93.849 148.373 C 92.461 148.374,91.932 148.430,92.674 148.496 M90.599 148.959 C 90.336 149.223,90.221 150.903,90.221 154.489 C 90.221 159.959,90.036 160.587,88.718 159.595 C 88.217 159.218,88.218 159.235,88.728 159.791 C 90.018 161.197,90.364 160.194,90.536 154.541 C 90.623 151.696,90.809 149.192,90.949 148.975 C 91.273 148.475,91.092 148.466,90.599 148.959 M337.327 150.946 C 337.329 152.161,337.386 152.619,337.454 151.965 C 337.522 151.310,337.521 150.316,337.452 149.756 C 337.382 149.196,337.326 149.732,337.327 150.946 M229.701 151.351 C 229.577 156.485,234.722 160.478,238.486 158.169 C 238.974 157.869,239.034 157.775,238.644 157.921 C 234.170 159.590,230.412 156.914,229.956 151.735 L 229.748 149.369 229.701 151.351 M250.577 151.577 C 250.578 152.792,250.635 153.250,250.703 152.595 C 250.772 151.941,250.771 150.947,250.701 150.387 C 250.631 149.827,250.575 150.363,250.577 151.577 M292.217 151.577 C 292.218 152.792,292.275 153.250,292.344 152.595 C 292.412 151.941,292.411 150.947,292.341 150.387 C 292.272 149.827,292.216 150.363,292.217 151.577 M227.574 151.901 C 227.645 153.623,228.632 157.002,228.694 155.736 C 228.701 155.595,228.548 155.183,228.355 154.822 C 228.161 154.460,227.886 153.156,227.743 151.924 L 227.483 149.685 227.574 151.901 M101.979 151.420 C 101.979 152.200,102.040 152.520,102.115 152.129 C 102.191 151.739,102.191 151.100,102.115 150.710 C 102.040 150.319,101.979 150.639,101.979 151.420 M216.394 151.025 C 216.223 151.502,215.872 152.270,215.613 152.730 C 214.941 153.925,215.031 154.288,215.718 153.155 C 216.348 152.116,217.089 150.158,216.853 150.158 C 216.771 150.158,216.564 150.548,216.394 151.025 M221.226 151.577 C 221.228 152.445,221.290 152.762,221.362 152.283 C 221.435 151.803,221.433 151.093,221.358 150.705 C 221.283 150.317,221.224 150.710,221.226 151.577 M269.165 151.262 C 269.168 151.956,269.233 152.203,269.308 151.810 C 269.384 151.418,269.381 150.850,269.302 150.548 C 269.223 150.247,269.161 150.568,269.165 151.262 M289.991 151.420 C 289.991 152.200,290.053 152.520,290.128 152.129 C 290.203 151.739,290.203 151.100,290.128 150.710 C 290.053 150.319,289.991 150.639,289.991 151.420 M103.860 151.420 C 103.860 151.853,103.969 152.634,104.101 153.155 C 104.316 153.999,104.342 154.016,104.342 153.312 C 104.342 152.879,104.233 152.098,104.101 151.577 C 103.886 150.733,103.860 150.716,103.860 151.420 M167.049 152.108 C 166.936 152.857,166.772 153.845,166.685 154.304 C 166.429 155.647,164.804 157.942,163.375 158.978 C 162.646 159.505,162.194 159.937,162.369 159.937 C 164.349 159.937,168.668 152.159,167.395 150.886 C 167.318 150.809,167.162 151.359,167.049 152.108 M170.368 152.751 C 170.304 155.387,173.208 159.112,176.198 160.231 C 178.794 161.202,180.653 160.918,183.353 159.136 C 184.791 158.187,184.746 158.187,184.982 159.127 C 185.537 161.336,187.405 160.251,187.322 157.769 L 187.262 155.994 187.148 157.824 C 187.006 160.104,185.174 160.858,185.174 158.636 C 185.174 157.791,184.416 157.903,182.947 158.968 C 178.407 162.256,172.463 159.600,170.836 153.555 C 170.525 152.401,170.382 152.155,170.368 152.751 M210.115 152.208 C 210.115 152.382,210.323 152.799,210.578 153.136 C 210.833 153.473,211.041 153.606,211.041 153.433 C 211.041 153.259,210.833 152.842,210.578 152.505 C 210.323 152.168,210.115 152.035,210.115 152.208 M330.442 154.209 C 330.442 155.191,330.329 156.349,330.192 156.782 L 329.942 157.571 330.417 156.782 C 330.912 155.961,331.075 153.422,330.673 152.790 C 330.546 152.589,330.442 153.228,330.442 154.209 M150.478 153.339 C 150.481 153.758,150.622 154.314,150.793 154.574 C 151.011 154.907,151.043 154.720,150.901 153.943 C 150.651 152.583,150.472 152.326,150.478 153.339 M269.414 153.686 C 269.398 154.336,269.997 155.975,270.184 155.789 C 270.258 155.715,270.118 155.092,269.873 154.404 C 269.629 153.717,269.422 153.394,269.414 153.686 M290.235 153.686 C 290.218 154.336,290.818 155.975,291.004 155.789 C 291.078 155.715,290.938 155.092,290.694 154.404 C 290.449 153.717,290.242 153.394,290.235 153.686 M384.700 154.259 C 384.582 154.632,384.556 155.008,384.643 155.095 C 384.729 155.182,384.897 154.947,385.016 154.574 C 385.134 154.201,385.160 153.825,385.073 153.738 C 384.987 153.651,384.819 153.886,384.700 154.259 M200.395 155.047 C 200.399 155.741,200.463 155.988,200.539 155.596 C 200.614 155.203,200.611 154.635,200.532 154.334 C 200.453 154.032,200.392 154.353,200.395 155.047 M241.795 154.585 C 241.674 154.964,241.063 155.862,240.437 156.581 C 239.305 157.878,239.304 157.880,240.339 156.940 C 241.398 155.978,242.442 154.325,242.166 154.048 C 242.082 153.964,241.915 154.206,241.795 154.585 M250.789 154.081 C 250.789 157.125,256.707 159.835,259.490 158.065 C 260.073 157.695,260.072 157.690,259.464 157.922 C 256.601 159.018,253.573 158.019,251.814 155.399 C 251.250 154.559,250.789 153.966,250.789 154.081 M271.609 154.055 C 271.609 155.003,273.374 157.066,275.149 158.191 C 277.022 159.380,280.576 158.581,282.333 156.576 L 283.121 155.678 282.176 156.510 C 278.851 159.435,274.839 158.912,272.518 155.253 C 272.018 154.465,271.609 153.926,271.609 154.055 M292.429 154.060 C 292.429 154.897,294.316 157.235,295.426 157.773 C 295.773 157.941,295.647 157.761,295.145 157.372 C 294.644 156.984,293.828 156.025,293.331 155.243 C 292.835 154.460,292.429 153.928,292.429 154.060 M214.089 155.973 C 212.937 158.326,213.054 158.640,214.232 156.356 C 214.755 155.341,215.127 154.454,215.057 154.384 C 214.987 154.314,214.552 155.029,214.089 155.973 M370.988 154.344 C 370.948 155.309,373.840 158.442,374.324 157.958 C 374.418 157.864,374.236 157.699,373.920 157.593 C 373.603 157.487,373.018 156.942,372.619 156.381 C 372.221 155.821,371.693 155.079,371.446 154.732 C 371.200 154.385,370.993 154.210,370.988 154.344 M209.205 154.811 C 209.265 154.941,209.651 155.797,210.063 156.713 C 210.475 157.629,210.865 158.325,210.930 158.260 C 211.093 158.098,209.519 154.574,209.284 154.574 C 209.180 154.574,209.145 154.681,209.205 154.811 M336.982 155.521 C 336.982 156.128,337.047 156.376,337.126 156.073 C 337.205 155.769,337.205 155.272,337.126 154.968 C 337.047 154.665,336.982 154.913,336.982 155.521 M318.614 155.518 C 317.821 156.998,321.687 160.926,323.880 160.869 C 324.192 160.860,323.754 160.583,322.906 160.251 C 319.950 159.097,317.386 155.521,319.514 155.521 C 319.816 155.521,320.201 155.627,320.369 155.757 C 320.538 155.887,320.409 155.745,320.082 155.442 C 319.318 154.731,319.027 154.746,318.614 155.518 M381.567 156.155 C 380.387 157.749,378.541 158.500,376.320 158.286 C 375.382 158.196,374.886 158.243,375.131 158.399 C 376.988 159.576,382.650 157.153,382.650 155.181 C 382.650 154.732,382.559 154.814,381.567 156.155 M151.104 155.411 C 151.104 158.328,157.629 161.663,160.883 160.410 C 162.218 159.896,161.847 159.839,159.975 160.271 C 157.198 160.911,153.780 159.300,152.017 156.521 C 151.515 155.730,151.104 155.230,151.104 155.411 M202.063 156.952 C 201.941 157.929,201.912 158.799,201.998 158.886 C 202.085 158.973,202.256 158.244,202.378 157.268 C 202.500 156.291,202.529 155.421,202.442 155.334 C 202.355 155.247,202.185 155.975,202.063 156.952 M383.281 157.143 C 380.320 161.286,374.464 161.456,370.981 157.500 C 370.286 156.709,369.718 156.189,369.719 156.344 C 369.748 158.707,376.026 161.457,379.079 160.444 C 381.493 159.642,385.246 156.372,384.511 155.711 C 384.441 155.649,383.888 156.294,383.281 157.143 M88.414 157.098 C 88.414 157.879,88.476 158.198,88.551 157.808 C 88.626 157.417,88.626 156.778,88.551 156.388 C 88.476 155.998,88.414 156.317,88.414 157.098 M228.975 156.694 C 230.505 159.553,235.146 161.484,237.855 160.389 L 238.959 159.942 237.855 160.168 C 234.825 160.788,232.566 160.076,230.347 157.804 C 229.399 156.833,228.782 156.333,228.975 156.694 M270.536 156.518 C 272.200 159.590,276.529 161.517,279.338 160.437 L 280.599 159.952 279.338 160.175 C 276.187 160.732,273.707 159.868,271.565 157.466 C 270.843 156.656,270.380 156.230,270.536 156.518 M291.171 156.342 C 291.166 156.802,294.490 159.937,294.981 159.937 C 295.191 159.937,294.796 159.526,294.103 159.024 C 293.410 158.522,292.467 157.635,292.009 157.053 C 291.550 156.470,291.173 156.151,291.171 156.342 M199.885 157.933 C 199.614 159.907,201.331 161.411,201.813 159.621 C 201.916 159.241,201.882 159.231,201.642 159.574 C 200.907 160.622,200.154 159.827,200.259 158.113 C 200.385 156.071,200.155 155.961,199.885 157.933 M321.293 157.062 C 323.123 159.185,327.060 159.062,327.907 156.855 C 328.043 156.501,327.802 156.611,327.217 157.172 C 325.608 158.713,323.588 158.719,321.712 157.188 C 320.841 156.477,320.770 156.456,321.293 157.062 M328.690 158.872 C 327.960 159.640,327.821 159.904,328.268 159.674 C 328.826 159.387,330.200 157.729,329.880 157.729 C 329.823 157.729,329.288 158.243,328.690 158.872 M211.066 158.901 C 211.027 159.494,212.295 160.071,212.715 159.651 C 212.965 159.401,212.831 159.306,212.234 159.306 C 211.780 159.306,211.337 159.129,211.250 158.912 C 211.130 158.614,211.085 158.612,211.066 158.901 M255.284 160.475 C 256.670 160.955,256.895 160.956,258.281 160.481 C 259.772 159.971,259.773 159.969,258.517 160.175 C 256.947 160.432,256.288 160.430,254.890 160.165 C 254.048 160.005,254.141 160.079,255.284 160.475 M326.725 160.131 C 326.618 160.238,326.062 160.436,325.489 160.572 C 324.627 160.776,324.584 160.822,325.237 160.840 C 325.670 160.851,326.380 160.658,326.814 160.410 C 327.248 160.162,327.449 159.954,327.261 159.948 C 327.073 159.942,326.832 160.024,326.725 160.131 M205.899 168.247 C 205.782 168.551,205.951 168.630,206.496 168.526 C 207.255 168.381,207.256 168.381,207.256 171.376 C 207.256 175.528,207.895 175.972,210.252 173.455 L 211.199 172.444 210.224 173.116 C 209.688 173.485,209.066 174.009,208.842 174.279 C 208.007 175.286,207.571 174.252,207.571 171.266 C 207.571 168.831,207.493 168.435,206.961 168.150 C 206.176 167.730,206.094 167.738,205.899 168.247 M237.987 168.277 C 237.137 168.899,237.259 180.325,238.122 180.956 C 238.917 181.537,239.432 180.886,239.432 179.299 C 239.432 177.460,239.950 177.500,241.956 179.495 C 244.201 181.729,246.580 181.535,244.532 179.285 C 241.492 175.946,241.538 176.157,243.533 174.667 C 245.364 173.300,245.664 172.240,244.221 172.240 C 243.660 172.240,242.854 172.648,242.041 173.344 C 239.812 175.252,239.432 174.982,239.432 171.490 C 239.432 168.224,239.092 167.468,237.987 168.277 M215.251 168.626 C 215.148 168.893,215.153 169.201,215.261 169.309 C 215.369 169.417,215.457 169.269,215.457 168.980 C 215.457 168.369,216.255 168.273,216.606 168.842 C 216.738 169.055,216.837 171.645,216.826 174.599 L 216.807 179.968 217.014 174.763 C 217.128 171.901,217.112 169.239,216.978 168.849 C 216.697 168.030,215.537 167.880,215.251 168.626 M219.373 168.571 C 219.027 169.471,219.386 170.187,220.231 170.285 C 220.794 170.351,221.124 170.201,221.272 169.812 C 221.446 169.356,221.410 169.321,221.091 169.637 C 220.394 170.330,219.558 170.115,219.558 169.243 C 219.558 168.392,220.122 168.213,220.797 168.849 C 221.134 169.167,221.187 169.152,221.072 168.770 C 220.876 168.123,219.602 167.974,219.373 168.571 M233.560 168.594 C 233.303 169.261,233.537 170.125,233.998 170.218 C 234.220 170.263,234.255 170.228,234.077 170.139 C 233.478 169.842,233.701 168.454,234.348 168.454 C 235.036 168.454,235.419 169.502,234.916 170.005 C 234.670 170.251,234.671 170.347,234.919 170.347 C 235.426 170.347,235.601 169.658,235.300 168.849 C 235.002 168.048,233.835 167.877,233.560 168.594 M239.122 171.391 C 239.128 175.527,239.467 175.774,242.146 173.604 C 243.318 172.655,244.810 172.195,244.785 172.792 C 244.768 173.190,244.064 173.932,242.823 174.858 C 241.279 176.011,241.320 176.277,243.363 178.420 C 246.013 181.201,244.892 181.835,242.061 179.158 C 239.953 177.164,239.312 177.187,239.178 179.262 C 239.089 180.648,238.527 181.273,238.055 180.510 C 237.662 179.875,237.745 169.125,238.146 168.642 C 238.878 167.760,239.117 168.433,239.122 171.391 M266.038 168.669 C 265.926 168.985,265.786 169.333,265.728 169.444 C 265.670 169.554,265.808 169.799,266.036 169.988 C 266.366 170.262,266.422 170.141,266.312 169.393 C 266.199 168.619,266.285 168.454,266.804 168.454 C 267.492 168.454,267.922 169.451,267.473 170.006 C 267.320 170.195,267.440 170.133,267.740 169.869 C 268.163 169.497,268.208 169.265,267.944 168.843 C 267.457 168.066,266.291 167.960,266.038 168.669 M215.213 175.455 C 215.169 178.733,215.262 180.794,215.460 180.917 C 215.877 181.174,217.035 180.801,217.035 180.409 C 217.035 180.220,216.803 180.228,216.425 180.431 C 216.089 180.610,215.737 180.757,215.644 180.757 C 215.550 180.757,215.430 178.379,215.378 175.473 L 215.283 170.189 215.213 175.455 M226.183 171.924 C 225.843 172.144,226.154 172.230,227.287 172.230 C 228.420 172.230,228.731 172.144,228.391 171.924 C 228.131 171.756,227.634 171.618,227.287 171.618 C 226.940 171.618,226.443 171.756,226.183 171.924 M248.186 172.105 C 247.709 172.364,247.319 172.766,247.319 173.000 C 247.319 173.669,248.062 174.139,248.591 173.804 C 249.434 173.271,251.046 173.465,251.712 174.180 C 252.576 175.108,252.355 175.296,250.227 175.450 C 247.179 175.671,245.551 177.689,246.729 179.787 C 247.974 182.005,254.584 182.216,254.569 180.036 C 254.565 179.360,254.552 179.363,254.167 180.123 C 253.657 181.133,251.256 181.582,249.369 181.021 C 245.373 179.835,245.898 176.079,250.103 175.775 C 252.555 175.597,253.045 175.098,251.894 173.947 C 251.142 173.195,250.886 173.124,249.509 173.287 C 248.566 173.399,247.887 173.340,247.760 173.135 C 247.414 172.576,248.324 172.251,250.315 172.222 C 251.668 172.203,252.028 172.118,251.577 171.924 C 250.606 171.507,249.145 171.585,248.186 172.105 M258.202 172.134 C 256.760 172.896,256.150 173.532,256.164 174.260 C 256.174 174.792,256.258 174.734,256.592 173.967 C 257.402 172.108,263.408 171.342,263.009 173.148 C 262.947 173.429,262.692 173.607,262.442 173.543 C 259.455 172.778,256.464 174.065,258.419 175.273 C 258.928 175.588,262.245 176.346,262.406 176.185 C 262.477 176.114,262.128 175.964,261.630 175.851 C 258.715 175.192,258.360 175.041,258.360 174.470 C 258.360 173.468,260.120 173.185,262.036 173.878 C 263.186 174.294,263.298 174.252,263.456 173.355 C 263.698 171.977,260.087 171.138,258.202 172.134 M212.066 172.466 C 213.390 172.666,212.822 173.733,210.735 174.966 C 209.338 175.791,209.518 176.582,211.553 178.560 C 212.529 179.508,213.098 179.920,212.817 179.475 C 212.536 179.030,211.809 178.269,211.201 177.784 C 209.766 176.640,209.805 175.996,211.375 174.908 C 213.451 173.470,213.779 172.191,212.048 172.287 L 211.199 172.334 212.066 172.466 M219.361 172.703 C 219.263 172.957,219.257 173.347,219.346 173.570 C 219.435 173.793,219.520 173.655,219.533 173.265 C 219.561 172.493,220.155 172.332,220.757 172.934 C 221.010 173.187,221.136 173.198,221.136 172.968 C 221.136 172.241,219.625 172.015,219.361 172.703 M224.192 173.125 C 223.725 173.611,223.344 174.214,223.345 174.465 C 223.346 174.716,223.620 174.472,223.954 173.924 C 224.289 173.375,224.821 172.776,225.136 172.592 C 225.452 172.409,225.559 172.255,225.374 172.249 C 225.190 172.244,224.658 172.638,224.192 173.125 M230.042 173.160 L 231.073 174.079 231.073 177.339 C 231.073 180.531,231.058 180.599,230.352 180.573 C 229.907 180.557,229.744 180.659,229.926 180.841 C 231.258 182.173,232.288 177.073,231.243 174.323 C 230.901 173.423,229.816 172.240,229.333 172.240 C 229.156 172.240,229.476 172.654,230.042 173.160 M233.817 172.618 C 233.211 173.224,233.296 180.635,233.912 180.871 C 235.125 181.337,235.334 180.818,235.270 177.490 L 235.209 174.290 235.034 177.445 C 234.894 179.961,234.762 180.599,234.385 180.599 C 233.749 180.599,233.673 172.845,234.306 172.634 C 234.523 172.562,234.834 172.834,234.996 173.239 C 235.281 173.949,235.292 173.951,235.311 173.299 C 235.322 172.927,235.107 172.537,234.832 172.431 C 234.197 172.187,234.259 172.176,233.817 172.618 M253.097 172.906 C 253.863 173.560,254.029 174.012,254.297 176.177 C 254.686 179.308,254.996 179.778,254.710 176.803 C 254.461 174.217,254.071 173.264,252.997 172.620 C 252.304 172.205,252.317 172.240,253.097 172.906 M266.309 172.618 C 265.691 173.237,265.795 180.252,266.430 180.779 C 267.581 181.734,267.974 180.802,268.070 176.891 C 268.170 172.760,267.586 171.342,266.309 172.618 M267.384 172.925 C 267.509 173.128,267.624 174.901,267.639 176.865 C 267.665 180.393,267.442 181.144,266.533 180.582 C 266.206 180.380,266.135 173.087,266.456 172.766 C 266.772 172.450,267.128 172.511,267.384 172.925 M225.844 174.314 C 225.190 175.009,225.056 175.524,224.921 177.863 C 224.779 180.336,224.703 180.599,224.132 180.599 C 223.561 180.599,223.485 180.330,223.325 177.760 L 223.148 174.921 223.088 177.643 C 222.982 182.489,224.960 182.613,225.237 177.778 C 225.471 173.681,228.032 172.265,229.340 175.507 C 229.608 176.171,229.613 176.172,229.633 175.533 C 229.684 173.881,227.049 173.034,225.844 174.314 M219.383 177.441 C 219.401 181.027,219.811 181.906,220.933 180.764 C 221.206 180.486,221.086 180.448,220.437 180.608 L 219.580 180.820 219.473 177.397 L 219.365 173.975 219.383 177.441 M256.163 175.237 C 256.191 176.281,258.073 177.410,260.331 177.739 C 261.829 177.957,262.574 179.199,261.435 179.581 C 261.209 179.657,261.242 179.699,261.514 179.679 C 261.819 179.657,261.987 179.316,261.987 178.724 C 261.987 177.847,261.885 177.779,259.797 177.270 C 258.131 176.864,257.433 176.518,256.881 175.828 C 256.481 175.329,256.158 175.063,256.163 175.237 M263.385 177.173 C 263.744 177.630,264.038 178.221,264.038 178.486 C 264.038 178.752,264.128 178.879,264.238 178.769 C 264.539 178.469,263.733 176.728,263.199 176.523 C 262.881 176.401,262.941 176.609,263.385 177.173 M248.917 177.422 C 248.521 177.844,248.272 178.376,248.364 178.605 C 248.481 178.897,248.538 178.867,248.556 178.506 C 248.616 177.248,251.062 176.550,252.104 177.494 C 252.422 177.781,252.681 177.880,252.681 177.715 C 252.681 176.463,250.012 176.256,248.917 177.422 M207.416 177.997 C 207.341 178.214,207.239 178.888,207.189 179.495 C 207.113 180.417,206.979 180.595,206.378 180.573 C 205.932 180.557,205.770 180.659,205.952 180.841 C 206.533 181.423,207.571 180.765,207.571 179.815 C 207.571 177.501,208.097 177.432,209.998 179.495 C 211.372 180.987,212.620 181.520,213.063 180.803 C 213.155 180.654,212.870 180.602,212.429 180.686 C 211.776 180.811,211.351 180.539,210.133 179.221 C 208.674 177.643,207.690 177.200,207.416 177.997 M256.573 179.674 C 255.837 181.591,262.170 182.091,263.582 180.228 C 264.269 179.322,264.110 179.003,263.413 179.889 C 262.484 181.070,257.910 181.359,256.856 180.305 C 256.507 179.956,257.391 179.583,258.301 179.695 L 259.148 179.799 258.360 179.521 C 257.164 179.099,256.781 179.132,256.573 179.674 M250.237 180.028 C 250.540 180.108,251.037 180.108,251.341 180.028 C 251.644 179.949,251.396 179.884,250.789 179.884 C 250.181 179.884,249.933 179.949,250.237 180.028 " stroke="none" fill="#ce2c3a" fill-rule="evenodd"></path><path id="path2" d="M353.326 136.568 C 352.467 138.172,354.105 139.725,355.347 138.484 C 355.847 137.984,355.905 137.704,355.657 136.994 C 355.263 135.867,353.840 135.606,353.326 136.568 M362.248 136.430 C 361.509 136.948,360.709 139.678,360.986 140.736 C 361.221 141.636,360.647 142.765,359.744 143.176 C 358.755 143.627,358.793 143.912,359.937 144.587 C 360.515 144.929,360.890 145.415,360.901 145.838 C 360.911 146.219,360.903 149.381,360.885 152.866 C 360.856 158.306,360.922 159.261,361.354 159.619 C 362.386 160.476,362.532 159.572,362.480 152.618 C 362.422 144.929,362.431 144.885,363.989 144.605 C 366.140 144.218,366.409 142.902,364.337 142.902 C 363.068 142.902,362.461 142.143,362.461 140.556 C 362.461 138.627,363.379 137.539,365.007 137.539 C 366.285 137.539,366.611 137.085,365.868 136.341 C 365.338 135.811,363.051 135.868,362.248 136.430 M132.951 136.673 C 132.387 138.145,132.990 159.779,133.596 159.779 C 134.195 159.779,134.236 159.508,134.409 154.394 C 134.658 147.027,136.286 144.284,140.376 144.344 C 144.041 144.398,144.951 146.321,144.863 153.827 C 144.798 159.300,145.020 160.420,146.043 159.788 C 146.737 159.359,146.458 147.794,145.712 146.059 C 144.112 142.339,139.451 141.497,136.472 144.389 C 134.675 146.135,134.385 145.622,134.385 140.689 C 134.385 137.307,134.305 136.630,133.886 136.469 C 133.199 136.205,133.125 136.222,132.951 136.673 M185.638 136.805 C 185.190 137.253,185.127 137.905,185.221 141.138 C 185.348 145.516,185.075 145.920,183.141 144.222 C 179.048 140.628,172.843 143.084,171.010 149.024 C 168.677 156.580,176.848 163.386,182.947 158.968 C 184.416 157.903,185.174 157.791,185.174 158.636 C 185.174 159.393,185.970 160.062,186.589 159.824 C 187.003 159.666,187.066 158.150,187.066 148.458 C 187.066 135.793,187.021 135.422,185.638 136.805 M305.237 136.782 C 305.132 137.054,305.047 139.038,305.047 141.193 C 305.047 145.647,304.877 145.880,302.832 144.219 C 298.041 140.325,290.944 143.957,290.322 150.622 C 289.625 158.086,297.182 162.986,302.908 158.783 C 304.503 157.611,305.047 157.624,305.047 158.833 C 305.047 159.706,305.415 160.018,306.123 159.746 C 306.970 159.422,306.875 137.065,306.025 136.610 C 305.566 136.364,305.382 136.405,305.237 136.782 M322.776 136.807 C 318.087 138.466,318.764 143.779,324.256 148.413 C 328.303 151.829,329.302 153.781,328.225 156.170 C 326.821 159.284,323.154 159.505,320.945 156.609 C 320.376 155.864,319.878 155.521,319.455 155.584 C 316.902 155.963,321.893 160.736,324.730 160.630 C 327.922 160.510,330.613 157.600,330.592 154.290 C 330.578 151.920,328.814 149.519,324.643 146.195 C 321.771 143.905,320.821 141.634,321.989 139.851 C 323.230 137.957,325.840 137.908,327.601 139.746 C 328.663 140.854,329.524 140.965,329.821 140.032 C 330.490 137.923,325.752 135.754,322.776 136.807 M335.528 136.764 C 335.246 137.499,335.284 159.557,335.568 159.724 C 336.827 160.465,337.116 159.476,337.161 154.276 C 337.221 147.416,338.428 144.992,342.130 144.298 C 346.038 143.565,347.314 145.949,347.317 153.983 C 347.319 159.352,347.627 160.701,348.622 159.706 C 349.310 159.018,348.827 146.685,348.065 145.491 C 346.025 142.289,342.197 141.756,339.038 144.235 C 337.246 145.641,337.119 145.434,337.091 141.030 C 337.068 137.430,337.017 137.110,336.395 136.698 C 335.806 136.306,335.700 136.315,335.528 136.764 M263.617 136.803 C 263.502 136.919,263.407 138.736,263.407 140.841 C 263.407 145.501,263.205 145.852,261.380 144.362 C 256.346 140.254,249.295 143.831,248.662 150.814 C 248.002 158.091,255.588 162.917,261.226 158.806 C 262.711 157.723,263.407 157.785,263.407 159.001 C 263.407 159.713,263.655 159.895,264.372 159.708 C 265.302 159.465,265.336 136.593,264.406 136.593 C 264.088 136.593,263.733 136.688,263.617 136.803 M92.196 137.510 C 88.782 139.439,88.661 139.875,88.600 150.431 C 88.548 159.496,88.638 160.249,89.726 159.831 C 90.148 159.669,90.221 158.871,90.221 154.434 L 90.221 149.226 91.020 148.702 C 91.672 148.275,92.352 148.209,94.720 148.344 C 97.460 148.500,99.060 148.270,99.049 147.721 C 99.030 146.769,98.396 146.598,94.749 146.563 C 90.315 146.520,90.221 146.477,90.221 144.467 C 90.221 140.711,92.106 138.801,95.815 138.801 C 98.079 138.801,99.250 138.289,98.963 137.424 C 98.747 136.771,93.383 136.839,92.196 137.510 M203.012 137.873 C 202.785 138.483,202.296 141.760,201.885 145.426 C 201.701 147.074,201.200 150.883,200.772 153.891 C 199.963 159.588,199.973 159.937,200.944 159.937 C 201.651 159.937,201.741 159.656,202.197 155.994 C 202.580 152.919,203.400 146.841,203.656 145.189 C 203.743 144.625,203.939 144.164,204.092 144.164 C 204.439 144.164,205.678 145.712,205.678 146.145 C 205.678 146.442,206.984 149.378,209.777 155.363 C 210.425 156.751,211.055 158.206,211.177 158.596 C 211.507 159.651,212.802 159.559,213.077 158.462 C 213.194 157.998,213.937 156.259,214.728 154.598 C 215.519 152.936,216.619 150.584,217.172 149.369 C 217.724 148.155,218.491 146.476,218.875 145.639 C 219.910 143.382,220.271 143.851,220.915 148.291 C 222.732 160.825,222.605 160.294,223.635 159.643 C 224.013 159.404,224.027 158.944,223.721 156.730 C 223.520 155.284,223.139 152.397,222.873 150.315 C 222.154 144.693,221.421 139.379,221.242 138.486 C 221.046 137.505,220.515 138.075,219.481 140.379 C 219.131 141.159,218.295 142.983,217.624 144.432 C 216.953 145.881,216.404 147.112,216.404 147.168 C 216.404 147.224,215.713 148.742,214.868 150.542 C 214.024 152.341,213.233 154.127,213.112 154.509 C 212.739 155.685,211.541 155.415,210.950 154.022 C 210.365 152.646,208.836 149.293,206.957 145.268 C 206.227 143.707,205.329 141.719,204.960 140.852 C 203.931 138.432,203.213 137.333,203.012 137.873 M107.850 143.022 C 106.138 143.634,104.900 144.631,103.811 146.275 C 98.414 154.423,107.589 164.552,115.018 158.648 C 116.395 157.554,116.817 157.598,117.038 158.859 C 117.185 159.702,117.352 159.809,118.302 159.669 C 118.999 159.566,118.543 143.375,117.843 143.375 C 117.418 143.375,117.151 143.689,116.965 144.406 C 116.666 145.561,116.124 145.471,114.511 143.997 C 113.064 142.675,110.054 142.234,107.850 143.022 M126.782 143.527 C 125.088 144.675,124.805 144.695,124.350 143.697 C 123.994 142.915,123.041 142.878,123.017 143.646 C 122.768 151.646,122.871 159.360,123.231 159.659 C 124.380 160.612,124.605 159.824,124.613 154.821 C 124.625 147.356,125.751 144.479,128.661 144.479 C 129.701 144.479,130.478 143.673,129.997 143.094 C 129.368 142.337,128.333 142.477,126.782 143.527 M156.364 142.972 C 153.129 143.829,150.094 148.920,150.615 152.614 C 152.024 162.615,165.292 162.989,166.889 153.072 C 167.946 146.507,162.553 141.332,156.364 142.972 M233.739 142.885 C 229.267 144.243,226.673 149.741,228.268 154.484 C 230.115 159.981,236.358 162.109,240.654 158.707 C 241.947 157.683,242.382 157.779,242.636 159.148 C 242.707 159.528,243.002 159.779,243.380 159.779 C 243.987 159.779,244.009 159.522,244.090 151.498 L 244.175 143.218 243.381 143.218 C 242.870 143.218,242.587 143.394,242.587 143.712 C 242.587 145.305,241.973 145.515,240.593 144.394 C 238.529 142.716,236.075 142.176,233.739 142.885 M275.032 142.959 C 272.409 143.657,269.700 147.496,269.457 150.859 C 268.922 158.253,276.808 163.078,282.264 158.694 C 283.640 157.588,284.227 157.630,284.227 158.833 C 284.227 159.708,284.595 160.018,285.308 159.744 C 285.758 159.572,285.806 158.649,285.731 151.463 L 285.647 143.375 284.937 143.275 C 284.377 143.195,284.226 143.328,284.222 143.906 C 284.212 145.474,283.752 145.595,282.287 144.414 C 280.087 142.642,277.881 142.200,275.032 142.959 M374.689 142.901 C 368.889 144.647,366.868 152.827,371.060 157.589 C 376.362 163.613,385.751 159.117,385.089 150.870 C 384.631 145.162,379.708 141.390,374.689 142.901 M353.789 143.528 C 352.694 145.299,353.787 160.851,354.926 159.712 C 355.506 159.132,355.122 143.398,354.525 143.283 C 354.237 143.228,353.906 143.338,353.789 143.528 M113.195 144.973 C 115.467 146.106,117.039 148.863,117.028 151.695 C 117.000 158.914,108.013 161.394,104.763 155.079 C 101.686 149.100,107.500 142.132,113.195 144.973 M301.024 144.781 C 302.704 144.879,305.047 148.838,305.047 151.577 C 305.047 158.013,298.224 161.084,293.944 156.575 C 289.581 151.977,293.529 143.362,299.472 144.513 C 300.196 144.653,300.895 144.774,301.024 144.781 M161.448 145.080 C 167.734 148.304,165.739 158.675,158.833 158.675 C 154.933 158.675,152.063 155.114,152.454 150.758 C 152.876 146.057,157.573 143.092,161.448 145.080 M182.221 145.532 C 187.848 149.398,185.530 158.728,178.942 158.728 C 174.011 158.728,170.749 152.872,173.122 148.279 C 175.062 144.525,179.017 143.331,182.221 145.532 M238.559 144.938 C 242.746 146.687,243.973 153.186,240.756 156.575 C 236.521 161.037,229.653 157.946,229.653 151.577 C 229.653 146.472,234.171 143.104,238.559 144.938 M259.400 144.906 C 263.547 146.638,264.772 153.209,261.576 156.574 C 257.303 161.073,250.487 158.001,250.487 151.577 C 250.487 146.559,255.097 143.108,259.400 144.906 M280.215 144.914 C 283.579 146.353,285.392 151.762,283.545 154.852 C 280.119 160.587,273.279 159.805,271.437 153.469 C 269.840 147.974,275.187 142.762,280.215 144.914 M379.432 144.927 C 385.985 148.366,384.076 158.731,376.903 158.662 C 370.066 158.596,368.189 148.830,374.290 145.066 C 375.440 144.356,378.203 144.282,379.432 144.927 M238.146 168.642 C 237.745 169.125,237.662 179.875,238.055 180.510 C 238.527 181.273,239.089 180.648,239.178 179.262 C 239.312 177.187,239.953 177.164,242.061 179.158 C 244.892 181.835,246.013 181.201,243.363 178.420 C 241.320 176.277,241.279 176.011,242.823 174.858 C 244.064 173.932,244.768 173.190,244.785 172.792 C 244.810 172.195,243.318 172.655,242.146 173.604 C 239.467 175.774,239.128 175.527,239.122 171.391 C 239.117 168.433,238.878 167.760,238.146 168.642 M205.819 168.859 C 205.282 170.258,205.853 180.599,206.467 180.599 C 206.981 180.599,207.127 180.336,207.256 179.183 C 207.482 177.147,208.209 177.139,210.067 179.150 C 211.451 180.647,212.635 181.180,213.058 180.495 C 213.147 180.351,212.446 179.469,211.500 178.535 C 209.521 176.581,209.350 175.784,210.735 174.966 C 211.778 174.349,212.934 173.217,212.934 172.811 C 212.934 172.140,211.086 172.617,210.226 173.510 C 207.880 175.945,207.256 175.504,207.256 171.412 C 207.256 168.649,207.213 168.454,206.615 168.454 C 206.262 168.454,205.904 168.636,205.819 168.859 M215.431 169.006 C 215.361 170.498,215.521 180.610,215.616 180.705 C 216.557 181.646,217.491 170.274,216.592 168.820 C 216.246 168.260,215.461 168.386,215.431 169.006 M219.558 169.243 C 219.558 169.813,219.728 170.032,220.171 170.032 C 220.976 170.032,221.286 169.489,220.809 168.914 C 220.210 168.192,219.558 168.364,219.558 169.243 M233.754 169.209 C 233.754 170.037,234.439 170.482,234.941 169.980 C 235.424 169.497,235.019 168.454,234.348 168.454 C 233.932 168.454,233.754 168.680,233.754 169.209 M266.246 169.224 C 266.246 170.152,266.747 170.532,267.331 170.047 C 267.914 169.564,267.572 168.454,266.840 168.454 C 266.421 168.454,266.246 168.680,266.246 169.224 M224.849 172.860 C 223.208 174.151,222.611 180.599,224.132 180.599 C 224.703 180.599,224.779 180.336,224.921 177.863 C 225.268 171.838,229.326 171.706,229.653 177.708 C 229.796 180.336,229.868 180.599,230.442 180.599 C 231.032 180.599,231.073 180.389,231.073 177.339 L 231.073 174.079 230.042 173.160 C 228.740 171.997,226.137 171.847,224.849 172.860 M247.988 172.525 C 247.134 173.065,247.946 173.472,249.509 173.287 C 250.886 173.124,251.142 173.195,251.894 173.947 C 253.045 175.098,252.555 175.597,250.103 175.775 C 247.905 175.934,246.688 176.910,246.688 178.511 C 246.688 181.144,253.056 182.418,254.208 180.016 C 254.960 178.446,254.245 173.873,253.104 172.960 C 252.158 172.203,248.930 171.928,247.988 172.525 M257.683 172.718 C 255.201 174.067,256.291 176.415,259.797 177.270 C 263.572 178.190,262.571 180.523,258.704 179.816 C 257.492 179.594,256.427 179.876,256.856 180.305 C 257.273 180.722,260.117 181.082,261.441 180.884 C 265.104 180.338,264.751 176.792,260.956 176.011 C 258.661 175.539,258.044 175.208,258.044 174.448 C 258.044 173.310,259.978 172.912,262.442 173.543 C 262.692 173.607,262.947 173.429,263.009 173.148 C 263.221 172.190,259.245 171.869,257.683 172.718 M219.539 173.265 C 219.487 175.235,219.611 180.599,219.711 180.700 C 219.774 180.763,220.121 180.721,220.481 180.607 C 221.260 180.360,221.501 173.678,220.757 172.934 C 220.155 172.332,219.560 172.493,219.539 173.265 M233.891 172.969 C 233.485 174.027,233.910 180.599,234.385 180.599 C 234.923 180.599,235.389 174.575,234.953 173.265 C 234.691 172.481,234.137 172.326,233.891 172.969 M266.456 172.766 C 266.135 173.087,266.206 180.380,266.533 180.582 C 267.442 181.144,267.665 180.393,267.639 176.865 C 267.609 172.928,267.315 171.907,266.456 172.766 M252.303 177.035 C 253.004 177.736,252.767 179.470,251.917 179.857 C 250.752 180.388,248.937 179.932,248.514 179.002 C 247.788 177.409,251.006 175.738,252.303 177.035 " stroke="none" fill="#ffa500" fill-rule="evenodd"></path></g></svg>
