<svg id="Layer_1" enable-background="new 0 0 64 64" height="512" viewBox="0 0 64 64" width="512" xmlns="http://www.w3.org/2000/svg"><g><g><path d="m16.5 49.5h-10v-10c0-3.314 2.686-6 6-6 3.314 0 6 2.686 6 6v8c0 1.105-.895 2-2 2z" fill="#eec78e"/></g><g><path d="m13 51.5h-6.5v-2h8c-.828 0-1.5.672-1.5 1.5z" fill="#db9e68"/></g><g><path d="m1.5 63h18v-8.5c0-1.657-1.343-3-3-3h-13.5c-1.657 0-3 1.343-3 3v7c0 .828.672 1.5 1.5 1.5z" fill="#fbbe18"/></g><g><path d="m16.5 51.5c1.657 0 3 1.343 3 3v8.5h-6v-8.5c0-1.657 1.343-3 3-3z" fill="#f68820"/></g><g><path d="m18.5 32h-5.5-1c-3.866 0-7 3.134-7 7v9c0 .828.672 1.5 1.5 1.5h5c.828 0 1.5-.672 1.5-1.5v-5h2v-2c0-.552.448-1 1-1 2.209 0 4-1.791 4-4v-2.5c0-.828-.672-1.5-1.5-1.5z" fill="#55525b"/></g><g><path d="m13 41c1.105 0 2 .895 2 2s-.895 2-2 2z" fill="#db9e68"/></g><g><path d="m60.5 63h-41v-4h41c.828 0 1.5.672 1.5 1.5v1c0 .828-.672 1.5-1.5 1.5z" fill="#55525b"/></g><g><path d="m60.5 63h-12c-.828 0-1.5-.672-1.5-1.5v-1c0-.828.672-1.5 1.5-1.5h12c.828 0 1.5.672 1.5 1.5v1c0 .828-.672 1.5-1.5 1.5z" fill="#353744"/></g><g><path d="m62 51h-40v-27c0-1.105.895-2 2-2h36c1.105 0 2 .895 2 2z" fill="#353744"/></g><g><path d="m60 51h-38v-27c0-1.105.895-2 2-2h34c1.105 0 2 .895 2 2z" fill="#55525b"/></g><g><path d="m60 55h-36c-1.105 0-2-.895-2-2v-2h40v2c0 1.105-.895 2-2 2z" fill="#808080"/></g><g><path d="m58 55h-34c-1.105 0-2-.895-2-2v-2h38v2c0 1.105-.895 2-2 2z" fill="#dbdee3"/></g><g><path d="m37 55h8v2h-8z" fill="#b3b4b6"/></g><g><path d="m45 55h2v2h-2z" fill="#808080" transform="matrix(-1 0 0 -1 92 112)"/></g><g><path d="m31 57h18c1.105 0 2 .895 2 2h-22c0-1.105.895-2 2-2z" fill="#dbdee3"/></g><g><path d="m49 57h-2c-1.105 0-2 .895-2 2h6c0-1.105-.895-2-2-2z" fill="#808080"/></g><g><path d="m36 39c0 1.105-.895 2-2 2h-6c-1.105 0-2-.895-2-2v-3c0-2.761 2.239-5 5-5 2.761 0 5 2.239 5 5z" fill="#fbbe18"/></g><g><path d="m62 28h-2c1.105 0 2 .895 2 2v13c0 1.105-.895 2-2 2h2c1.105 0 2-.895 2-2v-13c0-1.105-.895-2-2-2z" fill="#f68820"/></g><g><g><path d="m62 30v13c0 1.105-.895 2-2 2h-20.793c-.445 0-.669-.539-.354-.854l1.147-1.146v-13c0-1.105.895-2 2-2h18c1.105 0 2 .895 2 2z" fill="#fbbe18"/></g></g><g><path d="m32 43h-2c-2.209 0-4 1.791-4 4v4h10v-4c0-2.209-1.791-4-4-4z" fill="#6fa4d8"/></g><g><path d="m28 36v2c0 1.306.836 2.413 2 2.826v2.174c0 .552.448 1 1 1s1-.448 1-1v-2.174c1.164-.412 2-1.52 2-2.826v-2z" fill="#db9e68"/></g><g><path d="m46.5 32.5c0-.552.448-1 1-1h11.5c.552 0 1 .448 1 1 0 .552-.448 1-1 1h-11.5c-.552 0-1-.448-1-1z" fill="#dbdee3"/></g><g><path d="m42 36.5c0-.552.448-1 1-1h16c.552 0 1 .448 1 1 0 .552-.448 1-1 1h-16c-.552 0-1-.448-1-1z" fill="#dbdee3"/></g><g><path d="m42 40.5c0-.552.448-1 1-1h16c.552 0 1 .448 1 1 0 .552-.448 1-1 1h-16c-.552 0-1-.448-1-1z" fill="#dbdee3"/></g><g><path d="m30 12h-2c1.105 0 2 .895 2 2v12c0 1.105-.895 2-2 2h2c1.105 0 2-.895 2-2v-12c0-1.105-.895-2-2-2z" fill="#5c76b2"/></g><g><path d="m28 12h-8c-1.105 0-2 .895-2 2v14.793c0 .445.539.669.854.354l1.146-1.147h8c1.105 0 2-.895 2-2v-12c0-1.105-.895-2-2-2z" fill="#6fa4d8"/></g><g><path d="m24.5 25.5h-1c-.276 0-.5-.224-.5-.5v-1c0-.276.224-.5.5-.5h1c.276 0 .5.224.5.5v1c0 .276-.224.5-.5.5z" fill="#dbdee3"/></g><g><path d="m24.5 22h-1c-.276 0-.5-.224-.5-.5v-.148c0-1.176.563-2.271 1.548-3.013.119-.09.228-.196.304-.324.422-.709-.122-1.488-.812-1.514-.274-.01-.536.088-.733.279-.116.111-.201.245-.252.392-.069.198-.259.328-.468.328h-1.036c-.316 0-.554-.29-.491-.6.119-.592.414-1.132.86-1.562.593-.571 1.373-.867 2.196-.836 1.557.059 2.823 1.325 2.882 2.882.038.997-.42 1.945-1.224 2.535-.492.362-.774.884-.774 1.433v.148c0 .276-.224.5-.5.5z" fill="#dbdee3"/></g><g><circle cx="50" cy="9" fill="#5f7abc" r="8"/></g><g><g><path d="m56.921 5h-2.582c-.202-1.179-.505-2.288-.927-3.228-1.036-.49-2.19-.772-3.412-.772.986 0 1.846 1.611 2.307 4h-4.614c.461-2.389 1.321-4 2.307-4-1.222 0-2.376.282-3.412.772-.422.94-.725 2.049-.927 3.228h-2.582c-.359.619-.634 1.29-.817 2h3.152c-.052.671-.081 1.343-.081 2s.028 1.329.081 2h-3.152c.183.71.458 1.381.817 2h2.582c.202 1.179.505 2.288.927 3.228 1.036.49 2.19.772 3.412.772-.986 0-1.846-1.611-2.307-4h4.614c-.461 2.389-1.321 4-2.307 4 1.222 0 2.376-.282 3.412-.772.422-.939.725-2.049.927-3.228h2.582c.359-.619.634-1.29.817-2h-3.152c.052-.671.081-1.343.081-2s-.028-1.329-.081-2h3.152c-.183-.71-.458-1.381-.817-2zm-4.254 4c0 .692-.032 1.36-.087 2h-5.159c-.055-.64-.087-1.308-.087-2s.032-1.36.087-2h5.159c.054.64.087 1.308.087 2z" fill="#6fa4d8"/></g></g><g><circle cx="50" cy="20.5" fill="#5c76b2" r=".5"/></g><g><circle cx="50" cy="18.5" fill="#5c76b2" r=".5"/></g></g></svg>