<?xml version="1.0"?>
<svg xmlns="http://www.w3.org/2000/svg" xmlns:xlink="http://www.w3.org/1999/xlink" xmlns:svgjs="http://svgjs.com/svgjs" version="1.1" width="512" height="512" x="0" y="0" viewBox="0 0 512 512" style="enable-background:new 0 0 512 512" xml:space="preserve" class=""><g><linearGradient xmlns="http://www.w3.org/2000/svg" id="SVGID_1_" gradientTransform="matrix(1 0 0 -1 -561.6 -7650.99)" gradientUnits="userSpaceOnUse" x1="825.575" x2="809.076" y1="-7742.805" y2="-8188.283"><stop offset="0" stop-color="#d2dbfc" stop-opacity="0"/><stop offset="1" stop-color="#b8c1fb"/></linearGradient><g xmlns="http://www.w3.org/2000/svg"><path d="m364.823 55.393c-69.098-27.035-164.784-16.764-217.662 31.51-37.336 34.085-8.439 43.8 17.016 106.17 18.423 45.14-164.177 38.927-164.177 120.495 0 94.299 132.251 76.424 181.329 87.218 75.036 16.504 140.496 78.242 220.668 70.103 69.795-7.086 96.403-61.855 106.109-124.642 18.082-116.976-26.329-245.095-143.283-290.854z" fill="url(#SVGID_1_)" data-original="url(#SVGID_1_)" style=""/><path d="m411.183 129.625h-57.183v-43.37c0-10.841-8.789-19.63-19.63-19.63h-191.74c-10.841 0-19.63 8.789-19.63 19.63v43.37h-58.37c-10.841 0-19.63 8.789-19.63 19.63v263.74c0 10.841 8.789 19.63 19.63 19.63h57.37v29.369c0 10.842 8.789 19.631 19.631 19.631h191.738c10.842 0 19.631-8.789 19.631-19.631v-29.369h58.37c10.841 0 19.63-8.789 19.63-19.63v-263.757c.001-10.835-8.87-19.613-19.817-19.613z" fill="#2b2ab5" opacity=".11" data-original="#2b2ab5" style="" class=""/><path d="m449 131.239v263.755c0 10.842-8.789 19.631-19.631 19.631h-135.738c-10.842 0-19.631-8.789-19.631-19.631v-263.738c0-10.842 8.789-19.631 19.631-19.631h135.784c10.818.001 19.585 8.779 19.585 19.614z" fill="#ffffff" data-original="#ffffff" style="" class=""/><path d="m238 131.239v263.755c0 10.842-8.789 19.631-19.631 19.631h-135.738c-10.842 0-19.631-8.789-19.631-19.631v-263.738c0-10.842 8.789-19.631 19.631-19.631h135.784c10.818.001 19.585 8.779 19.585 19.614z" fill="#ffffff" data-original="#ffffff" style="" class=""/><path d="m368 376.625h42c2.761 0 5-2.239 5-5v-61c0-2.761-2.239-5-5-5h-42z" fill="#6e80f8" data-original="#6e80f8" style="" class=""/><path d="m144 376.625h-42c-2.761 0-5-2.239-5-5v-61c0-2.761 2.239-5 5-5h42z" fill="#6e80f8" data-original="#6e80f8" style="" class=""/><path d="m449 162.625v-31.369c0-10.842-8.789-19.631-19.631-19.631h-135.738c-10.842 0-19.631 8.789-19.631 19.631v31.369z" fill="#6e80f8" data-original="#6e80f8" style="" class=""/><circle cx="305.995" cy="137.834" fill="#ffffff" r="5.225" data-original="#ffffff" style="" class=""/><circle cx="324.607" cy="137.834" fill="#ffffff" r="5.225" data-original="#ffffff" style="" class=""/><circle cx="343.219" cy="137.834" fill="#ffffff" r="5.225" data-original="#ffffff" style="" class=""/><path d="m238 162.625v-31.369c0-10.842-8.789-19.631-19.631-19.631h-135.738c-10.842 0-19.631 8.789-19.631 19.631v31.369z" fill="#6e80f8" data-original="#6e80f8" style="" class=""/><path d="m238 131.382v31.243h-20v-31.243c0-10.914-8.592-19.757-19.196-19.757h20c10.604.001 19.196 8.844 19.196 19.757z" fill="#8695f9" data-original="#8695f9" style=""/><circle cx="95.388" cy="137.834" fill="#ffffff" r="5.225" data-original="#ffffff" style="" class=""/><circle cx="114" cy="137.834" fill="#ffffff" r="5.225" data-original="#ffffff" style="" class=""/><circle cx="132.612" cy="137.834" fill="#ffffff" r="5.225" data-original="#ffffff" style="" class=""/><path d="m371 68.235v375.759c0 10.842-8.789 19.631-19.631 19.631h-191.738c-10.842 0-19.631-8.789-19.631-19.631v-375.738c0-10.842 8.789-19.631 19.631-19.631h191.78c10.821.001 19.589 8.779 19.589 19.61z" fill="#ffffff" data-original="#ffffff" style="" class=""/><path d="m191.001 463.625h129.999v-228.033c0-3.296-2.672-5.967-5.967-5.967h-118.066c-3.296 0-5.967 2.671-5.967 5.967v228.033z" fill="#6e80f8" data-original="#6e80f8" style="" class=""/><path d="m371 99.626v-31.37c0-10.842-8.789-19.631-19.631-19.631h-191.738c-10.842 0-19.631 8.789-19.631 19.631v31.369z" fill="#6e80f8" data-original="#6e80f8" style="" class=""/><circle cx="172.648" cy="74.813" fill="#ffffff" r="5.225" data-original="#ffffff" style="" class=""/><circle cx="191.26" cy="74.813" fill="#ffffff" r="5.225" data-original="#ffffff" style="" class=""/><circle cx="209.872" cy="74.813" fill="#ffffff" r="5.225" data-original="#ffffff" style="" class=""/><path d="m196.967 187.625h118.066c3.296 0 5.967-2.672 5.967-5.967v-31.066c0-3.296-2.672-5.967-5.967-5.967h-118.066c-3.296 0-5.967 2.671-5.967 5.967v31.124c.001 3.263 2.672 5.909 5.967 5.909z" fill="#6e80f8" data-original="#6e80f8" style="" class=""/><path d="m205.981 149.625h-16.519c-2.403 0-4.612-1.609-5.084-3.965-.644-3.214 1.796-6.035 4.896-6.035h16.519c2.403 0 4.612 1.609 5.084 3.965.644 3.214-1.796 6.035-4.896 6.035z" fill="#2b2ab5" data-original="#2b2ab5" style="" class=""/><g fill="#2b2ab5"><path d="m241.084 176.625h-51.622c-2.403 0-4.612-1.609-5.084-3.965-.644-3.214 1.796-6.035 4.896-6.035h51.622c2.403 0 4.612 1.609 5.084 3.965.644 3.214-1.796 6.035-4.896 6.035z" fill="#2b2ab5" data-original="#2b2ab5" style="" class=""/><path d="m265.794 193.625h-76.332c-2.403 0-4.612-1.609-5.084-3.965-.644-3.214 1.796-6.035 4.896-6.035h76.332c2.403 0 4.612 1.609 5.084 3.965.644 3.214-1.796 6.035-4.896 6.035z" fill="#2b2ab5" data-original="#2b2ab5" style="" class=""/><path d="m322.24 258.625h-132.292c-2.403 0-4.612-1.609-5.084-3.965-.644-3.214 1.796-6.035 4.896-6.035h132.291c2.403 0 4.612 1.609 5.085 3.965.645 3.214-1.797 6.035-4.896 6.035z" fill="#2b2ab5" data-original="#2b2ab5" style="" class=""/><path d="m322.24 280.625h-132.292c-2.403 0-4.612-1.609-5.084-3.965-.644-3.214 1.796-6.035 4.896-6.035h132.291c2.403 0 4.612 1.609 5.085 3.965.645 3.214-1.797 6.035-4.896 6.035z" fill="#2b2ab5" data-original="#2b2ab5" style="" class=""/><path d="m322.24 302.625h-132.292c-2.403 0-4.612-1.609-5.084-3.965-.644-3.214 1.796-6.035 4.896-6.035h132.291c2.403 0 4.612 1.609 5.085 3.965.645 3.214-1.797 6.035-4.896 6.035z" fill="#2b2ab5" data-original="#2b2ab5" style="" class=""/><path d="m322.24 324.625h-132.292c-2.403 0-4.612-1.609-5.084-3.965-.644-3.214 1.796-6.035 4.896-6.035h132.291c2.403 0 4.612 1.609 5.085 3.965.645 3.214-1.797 6.035-4.896 6.035z" fill="#2b2ab5" data-original="#2b2ab5" style="" class=""/></g><path d="m413.834 461.15c-3.74 0-7.479-1.423-10.325-4.271-5.693-5.694-5.693-14.959 0-20.651 5.691-5.693 14.956-5.694 20.651-.001 5.693 5.693 5.693 14.958.001 20.652l-.001.001c-2.847 2.846-6.587 4.27-10.326 4.27zm6.791-7.525h.01zm-6.791-11.673c-1.179 0-2.357.449-3.255 1.346-1.794 1.795-1.794 4.716.001 6.511 1.793 1.793 4.713 1.795 6.51 0 1.794-1.796 1.794-4.716 0-6.511-.898-.896-2.077-1.346-3.256-1.346z" fill="#6e80f8" data-original="#6e80f8" style="" class=""/><path d="m99.063 48.625h-3.063v-3.063c0-2.404-1.611-4.613-3.968-5.084-3.214-.642-6.032 1.798-6.032 4.897v3.25h-3.063c-2.404 0-4.613 1.611-5.084 3.968-.642 3.214 1.798 6.032 4.897 6.032h3.25v3.063c0 2.404 1.61 4.613 3.968 5.084 3.214.642 6.032-1.798 6.032-4.897v-3.25h3.25c3.099 0 5.539-2.818 4.897-6.032-.471-2.357-2.681-3.968-5.084-3.968z" fill="#6e80f8" data-original="#6e80f8" style="" class=""/><path d="m421.063 38.625h-3.063v-3.063c0-2.404-1.611-4.613-3.968-5.084-3.214-.642-6.032 1.797-6.032 4.897v3.25h-3.063c-2.404 0-4.613 1.611-5.084 3.968-.642 3.214 1.797 6.032 4.897 6.032h3.25v3.063c0 2.404 1.611 4.613 3.968 5.084 3.214.642 6.032-1.797 6.032-4.897v-3.25h3.25c3.099 0 5.539-2.818 4.897-6.032-.471-2.357-2.681-3.968-5.084-3.968z" fill="#6e80f8" data-original="#6e80f8" style="" class=""/><path d="m449.063 64.625h-3.063v-3.063c0-2.404-1.611-4.613-3.968-5.084-3.214-.642-6.032 1.797-6.032 4.897v3.25h-3.063c-2.404 0-4.613 1.61-5.084 3.968-.642 3.214 1.797 6.032 4.897 6.032h3.25v3.063c0 2.404 1.611 4.613 3.968 5.084 3.214.642 6.032-1.797 6.032-4.897v-3.25h3.25c3.099 0 5.539-2.818 4.897-6.032-.471-2.357-2.681-3.968-5.084-3.968z" fill="#6e80f8" data-original="#6e80f8" style="" class=""/><path d="m105.063 461.625h-3.063v-3.063c0-2.404-1.611-4.613-3.968-5.084-3.214-.642-6.032 1.797-6.032 4.897v3.25h-3.063c-2.404 0-4.613 1.611-5.084 3.968-.642 3.214 1.797 6.032 4.897 6.032h3.25v3.063c0 2.404 1.61 4.613 3.968 5.084 3.214.642 6.032-1.797 6.032-4.897v-3.25h3.25c3.099 0 5.539-2.818 4.897-6.032-.471-2.357-2.681-3.968-5.084-3.968z" fill="#6e80f8" data-original="#6e80f8" style="" class=""/><g fill="#2b2ab5"><path d="m429.451 106.625h-52.451v-38.37c0-13.603-11.027-24.63-24.63-24.63h-192.739c-13.603 0-24.631 11.028-24.631 24.631v38.369h-52.369c-13.603 0-24.631 11.028-24.631 24.631v265.929c0 12.393 10.047 22.44 22.44 22.44h17.807c.287 0 .572-.107.779-.305 4.54-4.361 1.525-9.695-2.739-9.695h-13.656c-8.08 0-14.631-6.551-14.631-14.631v-228.369h67v243h-10.686c-2.404 0-4.613 1.611-5.084 3.968-.642 3.214 1.797 6.032 4.897 6.032h11.873v24.369c0 13.603 11.028 24.631 24.631 24.631h191.738c13.603 0 24.631-11.028 24.631-24.631v-24.369h52.369c13.603 0 24.631-11.028 24.631-24.631v-263.759c-.001-13.57-11.014-24.61-24.549-24.61zm14.549 24.631v26.369h-67v-41h52.369c8.08 0 14.631 6.551 14.631 14.631zm-283.369-77.631h191.738c8.081 0 14.631 6.551 14.631 14.631v26.369h-221v-26.369c0-8.08 6.551-14.631 14.631-14.631zm-92.631 104v-26.369c0-8.08 6.551-14.631 14.631-14.631h52.369v41zm361.37 252h-52.37v-219.221c0-2.273-1.453-4.336-3.629-4.99-3.829-1.152-7.371 1.407-7.371 4.72v253.862c0 8.08-6.55 14.63-14.63 14.63h-191.739c-8.08 0-14.631-6.551-14.631-14.631v-340.37h221v58c0 2.761 2.239 5 5 5h73v228.37c0 8.08-6.55 14.63-14.63 14.63z" fill="#2b2ab5" data-original="#2b2ab5" style="" class=""/><path d="m257.912 423.241-1.912 1.914-1.912-1.914c-1.95-1.954-5.116-1.956-7.07-.006-1.955 1.951-1.957 5.116-.006 7.07l5.45 5.459c.938.939 2.211 1.468 3.538 1.468s2.601-.528 3.538-1.468l5.45-5.459c1.951-1.954 1.949-5.119-.006-7.07-1.953-1.951-5.119-1.949-7.07.006z" fill="#2b2ab5" data-original="#2b2ab5" style="" class=""/><path d="m338.098 144.203c0-9.16-7.453-16.613-16.613-16.613s-16.613 7.453-16.613 16.613c0 4.518 1.818 8.615 4.755 11.613-2.937 2.998-4.755 7.096-4.755 11.613 0 2.762 2.238 5 5 5s5-2.238 5-5c0-3.646 2.967-6.613 6.613-6.613s6.613 2.967 6.613 6.613c0 2.762 2.238 5 5 5s5-2.238 5-5c0-4.518-1.818-8.615-4.755-11.613 2.936-2.997 4.755-7.095 4.755-11.613zm-16.614-6.613c3.646 0 6.613 2.967 6.613 6.613s-2.967 6.613-6.613 6.613-6.613-2.967-6.613-6.613 2.967-6.613 6.613-6.613z" fill="#2b2ab5" data-original="#2b2ab5" style="" class=""/><path d="m247.197 396.625h-5.394c-6.519 0-11.803-5.284-11.803-11.803v-16.394c0-6.519 5.284-11.803 11.803-11.803h5.395c6.518 0 11.802 5.284 11.802 11.802v16.395c0 6.519-5.284 11.803-11.803 11.803zm-7.197-28.197v16.394c0 .996.807 1.803 1.803 1.803h5.395c.991 0 1.802-.811 1.802-1.802v-16.395c0-.992-.811-1.803-1.803-1.803h-5.394c-.996 0-1.803.807-1.803 1.803z" fill="#2b2ab5" data-original="#2b2ab5" style="" class=""/><path d="m271 393.269v-26.644h-2.029c-.567 0-1.11-.24-1.498-.653-4.036-4.292-1.068-9.347 3.083-9.347h8.508c1.069 0 1.936.867 1.936 1.936v33.127c0 4.153-5.062 7.121-9.349 3.078-.412-.388-.651-.931-.651-1.497z" fill="#2b2ab5" data-original="#2b2ab5" style="" class=""/><path d="m106.171 238.625h-5.369c-6.518 0-11.802-5.284-11.802-11.802v-16.395c0-6.519 5.284-11.803 11.803-11.803h5.394c6.519 0 11.803 5.284 11.803 11.803v16.413c-.001 6.497-5.308 11.784-11.829 11.784zm-7.171-28.198v16.395c0 .992.811 1.803 1.803 1.803h5.394c.996 0 1.803-.807 1.803-1.803v-16.394c0-.996-.807-1.803-1.803-1.803h-5.395c-.995 0-1.802.807-1.802 1.802z" fill="#2b2ab5" data-original="#2b2ab5" style="" class=""/><path d="m112.322 284.625h-18.838c-.568 0-1.129-.163-1.609-.466-3.471-2.197-3.341-6.383-.791-8.434 5.042-4.05 12.845-11.452 14.405-15.229.6-1.451.505-3.051-.247-4.176-.926-1.384-2.565-1.687-4.822-.865-.893.325-1.412 1.255-1.267 2.194.677 4.4-4.384 7.935-8.846 4.266-.577-.475-.922-1.179-1.005-1.922-.911-8.102 5.432-14.991 13.355-14.991 4.479 0 8.451 2.1 10.898 5.76 2.624 3.923 3.063 8.99 1.177 13.555-1.354 3.274-4.398 6.997-7.594 10.308h6.389c.809 0 1.602.321 2.131.933 3.654 4.228.725 9.067-3.336 9.067z" fill="#2b2ab5" data-original="#2b2ab5" style="" class=""/><path d="m411.197 237.625h-5.394c-6.519 0-11.803-5.284-11.803-11.803v-16.395c0-6.518 5.284-11.802 11.802-11.802h5.396c6.518 0 11.802 5.284 11.802 11.802v16.395c0 6.519-5.284 11.803-11.803 11.803zm-7.197-28.197v16.394c0 .996.807 1.803 1.803 1.803h5.395c.995 0 1.802-.807 1.802-1.802v-16.396c0-.991-.811-1.802-1.802-1.802h-5.395c-.992 0-1.803.811-1.803 1.803z" fill="#2b2ab5" data-original="#2b2ab5" style="" class=""/><path d="m422.053 256.341c-.875-6.227-6.458-10.716-12.746-10.716h-8.842c-2.404 0-4.613 1.611-5.084 3.968-.642 3.214 1.797 6.032 4.897 6.032h9.266c1.174 0 2.289.742 2.563 1.884.395 1.643-.847 3.116-2.426 3.116h-9.216c-2.404 0-4.613 1.611-5.084 3.968-.642 3.214 1.797 6.032 4.897 6.032h9.266c1.175 0 2.289.743 2.564 1.885.395 1.644-.848 3.115-2.427 3.115h-9.215c-2.404 0-4.613 1.611-5.084 3.968-.642 3.214 1.797 6.032 4.897 6.032h9.031c6.288 0 11.87-4.489 12.745-10.716.492-3.5-.496-6.757-2.402-9.284 1.904-2.526 2.892-5.784 2.4-9.284z" fill="#2b2ab5" data-original="#2b2ab5" style="" class=""/></g></g></g></svg>
