<svg id="Capa_1" enable-background="new 0 0 512 512" height="512" viewBox="0 0 512 512" width="512" xmlns="http://www.w3.org/2000/svg"><g><g><g><g><path d="m136.549 498v-120.416c0-2.243-1.818-4.06-4.06-4.06h-45.346c-2.243 0-4.06 1.818-4.06 4.06v120.416z" fill="#fd5426"/><path d="m104.07 498v-120.416c0-2.243 1.818-4.06 4.06-4.06h-20.987c-2.243 0-4.06 1.818-4.06 4.06v120.416z" fill="#ef4424"/><path d="m218.086 498v-216.674c0-2.242-1.818-4.06-4.06-4.06h-45.346c-2.243 0-4.06 1.818-4.06 4.06v216.674z" fill="#05e39c"/><path d="m185.277 498v-216.673c0-2.243 1.818-4.06 4.06-4.06h-20.657c-2.243 0-4.06 1.818-4.06 4.06v216.673z" fill="#0ed290"/><path d="m299.623 498v-171.227c0-2.242-1.818-4.06-4.061-4.06h-45.346c-2.243 0-4.06 1.818-4.06 4.06v171.227z" fill="#fed402"/><path d="m267.166 498v-171.227c0-2.242 1.818-4.06 4.06-4.06h-21.01c-2.243 0-4.06 1.818-4.06 4.06v171.227z" fill="#fac600"/><path d="m381.16 498v-119.097c0-2.242-1.818-4.06-4.06-4.06h-45.346c-2.242 0-4.061 1.818-4.061 4.06v119.097z" fill="#fd5426"/><path d="m348.706 498v-119.097c0-2.242 1.818-4.06 4.06-4.06h-21.013c-2.243 0-4.061 1.818-4.061 4.06v119.097z" fill="#ef4424"/><path d="m462.697 498v-215.009c0-2.243-1.818-4.06-4.061-4.06h-45.346c-2.242 0-4.06 1.818-4.06 4.06v215.009z" fill="#05e39c"/><path d="m429.914 498v-215.009c0-2.243 1.818-4.06 4.06-4.06h-20.684c-2.243 0-4.06 1.818-4.06 4.06v215.009z" fill="#0ed290"/></g><g><g fill="#537983"><path d="m413.458 218.884-47.304 48.855c4.541 2.336 8.301 5.978 10.777 10.433l47.304-48.855c-4.54-2.336-8.3-5.979-10.777-10.433z"/><path d="m168.452 176.701-46.164 44.65c4.453 2.479 8.094 6.241 10.427 10.783l46.164-44.65c-4.453-2.479-8.094-6.241-10.427-10.783z"/><path d="m339.518 269.678-124.092-95.611c-1.82 4.81-5.042 8.932-9.165 11.874l124.092 95.611c1.82-4.81 5.043-8.932 9.165-11.874z"/></g><g><circle cx="109.816" cy="243.849" fill="#fd5426" r="26.733"/></g><g><path d="m104.069 243.849c0-11.039 6.692-20.514 16.24-24.593-3.222-1.377-6.768-2.141-10.494-2.141-14.764 0-26.733 11.969-26.733 26.733s11.969 26.733 26.733 26.733c3.725 0 7.272-.764 10.494-2.141-9.547-4.077-16.24-13.551-16.24-24.591z" fill="#ef4424"/></g><g><circle cx="191.353" cy="164.986" fill="#05e39c" r="26.733"/></g><g><path d="m185.277 164.986c0-11.103 6.769-20.623 16.405-24.663-3.178-1.333-6.667-2.07-10.329-2.07-14.764 0-26.733 11.969-26.733 26.733 0 14.765 11.969 26.733 26.733 26.733 3.662 0 7.151-.738 10.329-2.071-9.636-4.039-16.405-13.56-16.405-24.662z" fill="#0ed290"/></g><g><circle cx="354.426" cy="290.633" fill="#fd5426" r="26.733"/></g><g><path d="m348.706 290.633c0-11.034 6.686-20.505 16.227-24.587-3.225-1.38-6.776-2.146-10.507-2.146-14.764 0-26.733 11.969-26.733 26.733s11.969 26.733 26.733 26.733c3.73 0 7.281-.766 10.507-2.146-9.541-4.083-16.227-13.553-16.227-24.587z" fill="#ef4424"/></g><g><circle cx="435.963" cy="206.423" fill="#05e39c" r="26.733"/></g><g><path d="m429.914 206.423c0-11.098 6.763-20.615 16.392-24.658-3.182-1.336-6.675-2.076-10.342-2.076-14.764 0-26.733 11.969-26.733 26.733s11.969 26.733 26.733 26.733c3.667 0 7.16-.74 10.342-2.076-9.63-4.042-16.392-13.559-16.392-24.656z" fill="#0ed290"/></g></g></g><g><path d="m489.43 512h-433.081c-4.143 0-7.5-3.358-7.5-7.5s3.357-7.5 7.5-7.5h433.081c4.143 0 7.5 3.358 7.5 7.5s-3.358 7.5-7.5 7.5z" fill="#537983"/></g></g><g><path d="m191.353 235.602c-38.938 0-70.615-31.678-70.615-70.616s31.678-70.616 70.615-70.616 70.616 31.678 70.616 70.616-31.679 70.616-70.616 70.616zm0-126.232c-30.666 0-55.615 24.949-55.615 55.616s24.949 55.616 55.615 55.616c30.667 0 55.616-24.949 55.616-55.616s-24.949-55.616-55.616-55.616z" fill="#8ebac5"/></g><g><g><path d="m144.139 136.436h-130.776c-2.679 0-4.851-2.172-4.851-4.851v-50.331c0-2.679 2.172-4.851 4.851-4.851h130.775c2.679 0 4.851 2.172 4.851 4.851v50.331c.001 2.679-2.171 4.851-4.85 4.851z" fill="#fed402"/></g><g><path d="m40.406 131.585v-50.331c0-2.679 2.172-4.851 4.851-4.851h-31.894c-2.679 0-4.851 2.172-4.851 4.851v50.331c0 2.679 2.172 4.851 4.851 4.851h31.894c-2.679 0-4.851-2.172-4.851-4.851z" fill="#fac600"/></g><g><g><path d="m53.302 113.919h-18.323c-4.143 0-7.5-3.358-7.5-7.5s3.357-7.5 7.5-7.5h18.323c4.143 0 7.5 3.358 7.5 7.5s-3.358 7.5-7.5 7.5z" fill="#3e5959"/></g><g><path d="m122.522 113.919h-45.439c-4.143 0-7.5-3.358-7.5-7.5s3.357-7.5 7.5-7.5h45.439c4.143 0 7.5 3.358 7.5 7.5s-3.357 7.5-7.5 7.5z" fill="#3e5959"/></g></g></g><g><g><path d="m503.488 67.396c0-38.248-31.861-69.054-70.49-67.327-34.19 1.529-62.614 29.879-64.225 64.065-1.59 33.736 21.64 62.329 52.995 69.117 2.081.45 3.777 1.948 4.464 3.963 0 0 7.272 12.394 7.272 12.394 1.159 1.976 4.016 1.976 5.175 0l7.273-12.396c.684-2.006 2.367-3.508 4.439-3.956 30.352-6.558 53.097-33.547 53.097-65.86z" fill="#fed402"/></g><g><g><path d="m449.558 126.831c-.687-2.015-2.384-3.512-4.464-3.963-31.432-6.805-54.7-35.522-52.982-69.368 1.084-21.369 12.299-40.2 28.884-51.782-28.742 6.632-50.671 31.843-52.21 62.165-1.718 33.846 21.55 62.563 52.982 69.368 2.081.45 3.778 1.948 4.464 3.963l7.272 12.394c1.159 1.976 4.016 1.976 5.175 0l7.273-12.396c.684-2.006 2.367-3.508 4.439-3.956.865-.187 1.723-.395 2.576-.615z" fill="#fac600"/></g></g><path d="m443.837 59.896h-15.49c-3.592 0-6.515-2.922-6.515-6.515s2.923-6.515 6.515-6.515h27.292c4.143 0 7.5-3.358 7.5-7.5s-3.357-7.5-7.5-7.5h-12.047v-6.884c0-4.142-3.357-7.5-7.5-7.5s-7.5 3.358-7.5 7.5v6.884h-.245c-11.863 0-21.515 9.651-21.515 21.515s9.651 21.515 21.515 21.515h15.49c3.592 0 6.515 2.922 6.515 6.515s-2.923 6.515-6.515 6.515h-27.292c-4.143 0-7.5 3.358-7.5 7.5s3.357 7.5 7.5 7.5h12.047v6.883c0 4.142 3.357 7.5 7.5 7.5s7.5-3.358 7.5-7.5v-6.883h.245c11.863 0 21.515-9.651 21.515-21.515s-9.652-21.515-21.515-21.515z" fill="#3e5959"/></g></g></svg>