<?xml version="1.0"?>
<svg xmlns="http://www.w3.org/2000/svg" xmlns:xlink="http://www.w3.org/1999/xlink" xmlns:svgjs="http://svgjs.com/svgjs" version="1.1" width="512" height="512" x="0" y="0" viewBox="0 0 512 512" style="enable-background:new 0 0 512 512" xml:space="preserve" class=""><g><linearGradient xmlns="http://www.w3.org/2000/svg" id="linear-gradient" gradientUnits="userSpaceOnUse" x1="-2.615" x2="534.092" y1="490.615" y2="-46.092"><stop stop-opacity="1" stop-color="#dbdfdb" offset="0"/><stop stop-opacity="1" stop-color="#aeac25" offset="0.518"/><stop stop-opacity="1" stop-color="#bd9b65" offset="1"/></linearGradient><linearGradient xmlns="http://www.w3.org/2000/svg" xmlns:xlink="http://www.w3.org/1999/xlink" id="linear-gradient-2" x1="-40.615" x2="496.092" xlink:href="#linear-gradient" y1="452.615" y2="-84.092"/><linearGradient xmlns="http://www.w3.org/2000/svg" xmlns:xlink="http://www.w3.org/1999/xlink" id="linear-gradient-3" x1="-16.615" x2="520.092" xlink:href="#linear-gradient" y1="476.615" y2="-60.092"/><linearGradient xmlns="http://www.w3.org/2000/svg" xmlns:xlink="http://www.w3.org/1999/xlink" id="linear-gradient-4" x1="-14.615" x2="522.092" xlink:href="#linear-gradient" y1="478.615" y2="-58.092"/><linearGradient xmlns="http://www.w3.org/2000/svg" xmlns:xlink="http://www.w3.org/1999/xlink" id="linear-gradient-5" x1="-66.615" x2="470.092" xlink:href="#linear-gradient" y1="426.615" y2="-110.092"/><linearGradient xmlns="http://www.w3.org/2000/svg" xmlns:xlink="http://www.w3.org/1999/xlink" id="linear-gradient-6" x1="21.385" x2="558.092" xlink:href="#linear-gradient" y1="514.615" y2="-22.092"/><linearGradient xmlns="http://www.w3.org/2000/svg" xmlns:xlink="http://www.w3.org/1999/xlink" id="linear-gradient-7" x1="51.385" x2="588.092" xlink:href="#linear-gradient" y1="544.615" y2="7.908"/><linearGradient xmlns="http://www.w3.org/2000/svg" xmlns:xlink="http://www.w3.org/1999/xlink" id="linear-gradient-9" x1="71.385" x2="608.092" xlink:href="#linear-gradient" y1="564.615" y2="27.908"/><linearGradient xmlns="http://www.w3.org/2000/svg" xmlns:xlink="http://www.w3.org/1999/xlink" id="linear-gradient-10" x1="61.385" x2="598.092" xlink:href="#linear-gradient" y1="554.615" y2="17.908"/><g xmlns="http://www.w3.org/2000/svg" id="UI_design" data-name="UI design"><path d="m480 96h-448a24.027 24.027 0 0 0 -24 24v224a24.027 24.027 0 0 0 24 24h173.754l-4 16h-25.754a8 8 0 0 0 -8 8v24a8 8 0 0 0 8 8h160a8 8 0 0 0 8-8v-24a8 8 0 0 0 -8-8h-25.754l-4-16h173.754a24.027 24.027 0 0 0 24-24v-224a24.027 24.027 0 0 0 -24-24zm-456 24a8.009 8.009 0 0 1 8-8h448a8.009 8.009 0 0 1 8 8v184h-464zm304 288h-144v-8h144zm-34.246-24h-75.508l4-16h67.508zm194.246-40a8.009 8.009 0 0 1 -8 8h-448a8.009 8.009 0 0 1 -8-8v-24h464z" fill="url(#linear-gradient)" data-original="url(#linear-gradient)" style="" class=""/><path d="m56 344h40a8 8 0 0 0 0-16h-40a8 8 0 0 0 0 16z" fill="url(#linear-gradient-2)" data-original="url(#linear-gradient-2)" style=""/><path d="m120 344h8a8 8 0 0 0 0-16h-8a8 8 0 0 0 0 16z" fill="url(#linear-gradient-3)" data-original="url(#linear-gradient-3)" style=""/><path d="m296 128h-80a8 8 0 0 0 -8 8v144a8 8 0 0 0 8 8h80a8 8 0 0 0 8-8v-144a8 8 0 0 0 -8-8zm-8 144h-64v-128h64z" fill="url(#linear-gradient-4)" data-original="url(#linear-gradient-4)" style=""/><path d="m192 128h-80a8 8 0 0 0 -8 8v144a8 8 0 0 0 8 8h80a8 8 0 0 0 8-8v-144a8 8 0 0 0 -8-8zm-8 144h-64v-128h64z" fill="url(#linear-gradient-5)" data-original="url(#linear-gradient-5)" style="" class=""/><path d="m400 128h-72a8 8 0 0 0 -8 8v72a8 8 0 0 0 8 8h72a8 8 0 0 0 8-8v-72a8 8 0 0 0 -8-8zm-8 72h-56v-56h56z" fill="url(#linear-gradient-6)" data-original="url(#linear-gradient-6)" style="" class=""/><path d="m400 224h-72a8 8 0 0 0 0 16h72a8 8 0 0 0 0-16z" fill="url(#linear-gradient-7)" data-original="url(#linear-gradient-7)" style=""/><path d="m352 248h-24a8 8 0 0 0 0 16h24a8 8 0 0 0 0-16z" fill="url(#linear-gradient-7)" data-original="url(#linear-gradient-7)" style=""/><path d="m384 248h-8a8 8 0 0 0 0 16h8a8 8 0 0 0 0-16z" fill="url(#linear-gradient-9)" data-original="url(#linear-gradient-9)" style=""/><path d="m344 272h-16a8 8 0 0 0 0 16h16a8 8 0 0 0 0-16z" fill="url(#linear-gradient-10)" data-original="url(#linear-gradient-10)" style=""/></g></g></svg>
