<?xml version="1.0"?>
<svg xmlns="http://www.w3.org/2000/svg" xmlns:xlink="http://www.w3.org/1999/xlink" xmlns:svgjs="http://svgjs.com/svgjs" version="1.1" width="512" height="512" x="0" y="0" viewBox="0 0 512 512" style="enable-background:new 0 0 512 512" xml:space="preserve" class=""><g><linearGradient xmlns="http://www.w3.org/2000/svg" id="linear-gradient" gradientUnits="userSpaceOnUse" x1="199.018" x2="199.018" y1="426" y2="151.267"><stop stop-opacity="1" stop-color="#84d20b" offset="0.322"/><stop stop-opacity="1" stop-color="#9174ae" offset="0.466"/><stop stop-opacity="1" stop-color="#b5b84a" offset="0.7625482625482626"/><stop stop-opacity="1" stop-color="#eb792e" offset="0.898"/></linearGradient><linearGradient xmlns="http://www.w3.org/2000/svg" xmlns:xlink="http://www.w3.org/1999/xlink" id="linear-gradient-2" x1="184.75" x2="184.75" xlink:href="#linear-gradient" y1="426" y2="151.267"/><linearGradient xmlns="http://www.w3.org/2000/svg" xmlns:xlink="http://www.w3.org/1999/xlink" id="linear-gradient-3" x1="265.501" x2="265.501" xlink:href="#linear-gradient" y1="426" y2="151.267"/><linearGradient xmlns="http://www.w3.org/2000/svg" xmlns:xlink="http://www.w3.org/1999/xlink" id="linear-gradient-4" x1="383" x2="383" xlink:href="#linear-gradient" y1="426" y2="151.267"/><linearGradient xmlns="http://www.w3.org/2000/svg" xmlns:xlink="http://www.w3.org/1999/xlink" id="linear-gradient-5" x1="398" x2="398" xlink:href="#linear-gradient" y1="426" y2="151.267"/><linearGradient xmlns="http://www.w3.org/2000/svg" xmlns:xlink="http://www.w3.org/1999/xlink" id="linear-gradient-7" x1="393" x2="393" xlink:href="#linear-gradient" y1="426" y2="151.267"/><linearGradient xmlns="http://www.w3.org/2000/svg" xmlns:xlink="http://www.w3.org/1999/xlink" id="linear-gradient-8" x1="256" x2="256" xlink:href="#linear-gradient" y1="426" y2="151.267"/><linearGradient xmlns="http://www.w3.org/2000/svg" xmlns:xlink="http://www.w3.org/1999/xlink" id="linear-gradient-9" x1="62.364" x2="62.364" xlink:href="#linear-gradient" y1="426" y2="151.267"/><linearGradient xmlns="http://www.w3.org/2000/svg" xmlns:xlink="http://www.w3.org/1999/xlink" id="linear-gradient-10" x1="95.091" x2="95.091" xlink:href="#linear-gradient" y1="426" y2="151.267"/><linearGradient xmlns="http://www.w3.org/2000/svg" xmlns:xlink="http://www.w3.org/1999/xlink" id="linear-gradient-11" x1="127.819" x2="127.819" xlink:href="#linear-gradient" y1="426" y2="151.267"/><linearGradient xmlns="http://www.w3.org/2000/svg" xmlns:xlink="http://www.w3.org/1999/xlink" id="linear-gradient-12" x1="207.106" x2="207.106" xlink:href="#linear-gradient" y1="426" y2="151.267"/><linearGradient xmlns="http://www.w3.org/2000/svg" xmlns:xlink="http://www.w3.org/1999/xlink" id="linear-gradient-13" x1="239.833" x2="239.833" xlink:href="#linear-gradient" y1="426" y2="151.267"/><linearGradient xmlns="http://www.w3.org/2000/svg" xmlns:xlink="http://www.w3.org/1999/xlink" id="linear-gradient-14" x1="272.561" x2="272.561" xlink:href="#linear-gradient" y1="426" y2="151.267"/><linearGradient xmlns="http://www.w3.org/2000/svg" xmlns:xlink="http://www.w3.org/1999/xlink" id="linear-gradient-15" x1="44" x2="44" xlink:href="#linear-gradient" y1="426" y2="151.267"/><path xmlns="http://www.w3.org/2000/svg" d="m185.725 271.865a6 6 0 0 0 4.46 2.686c.187.017.374.026.56.026a6 6 0 0 0 4.32-1.837l78.951-81.954a6 6 0 0 0 -.3-8.619 124.764 124.764 0 0 0 -148.498-13.967 6 6 0 0 0 -1.9 8.41zm4.379-109.86a112.637 112.637 0 0 1 70.849 25.044l-69.312 71.951-54.79-83.633a112.623 112.623 0 0 1 53.249-13.362z" fill="url(#linear-gradient)" data-original="url(#linear-gradient)" style=""/><path xmlns="http://www.w3.org/2000/svg" d="m185.1 413.993a124.444 124.444 0 0 0 124.238-111.1 5.456 5.456 0 0 0 -1.5-4.4c-1.138-1.269-2.758-1.493-4.462-1.493h-119.051c-.531 0-1.051-.792-1.359-1.261l-67.093-102.918a6 6 0 0 0 -8.77-1.4 124.936 124.936 0 0 0 78 222.567zm-75.507-208.915 63.407 96.862v.124a13.485 13.485 0 0 0 11.325 6.936h112.175c-9.062 54-55.809 93.493-111.383 93.493-62.3 0-112.972-51.189-112.972-113.494a112.421 112.421 0 0 1 37.448-83.921z" fill="url(#linear-gradient-2)" data-original="url(#linear-gradient-2)" style=""/><path xmlns="http://www.w3.org/2000/svg" d="m209.425 282.848c.941 2.214 3.115 4.152 5.521 4.152h101.11c1.611 0 3.155-1.141 4.283-2.291a7.2 7.2 0 0 0 1.716-4.81 125.1 125.1 0 0 0 -30.155-78.939 5.969 5.969 0 0 0 -4.38-2.056 6.1 6.1 0 0 0 -4.491 1.9l-72.406 75.285a6.417 6.417 0 0 0 -1.198 6.759zm77.538-67.956a112.509 112.509 0 0 1 22.808 60.108h-80.713z" fill="url(#linear-gradient-3)" data-original="url(#linear-gradient-3)" style=""/><path xmlns="http://www.w3.org/2000/svg" d="m341 219h84a6 6 0 0 0 6-6v-23a6 6 0 0 0 -6-6h-84a6 6 0 0 0 -6 6v23a6 6 0 0 0 6 6zm35-23h43v11h-43zm-29 0h17v11h-17z" fill="url(#linear-gradient-4)" data-original="url(#linear-gradient-4)" style="" class=""/><path xmlns="http://www.w3.org/2000/svg" d="m341 269h114a6 6 0 0 0 6-6v-23a6 6 0 0 0 -6-6h-114a6 6 0 0 0 -6 6v23a6 6 0 0 0 6 6zm35-23h73v11h-73zm-29 0h17v11h-17z" fill="url(#linear-gradient-5)" data-original="url(#linear-gradient-5)" style="" class=""/><path xmlns="http://www.w3.org/2000/svg" d="m341 319h84a6 6 0 0 0 6-6v-23a6 6 0 0 0 -6-6h-84a6 6 0 0 0 -6 6v23a6 6 0 0 0 6 6zm35-23h43v11h-43zm-29 0h17v11h-17z" fill="url(#linear-gradient-4)" data-original="url(#linear-gradient-4)" style="" class=""/><path xmlns="http://www.w3.org/2000/svg" d="m341 369h104a6 6 0 0 0 6-6v-23a6 6 0 0 0 -6-6h-104a6 6 0 0 0 -6 6v23a6 6 0 0 0 6 6zm35-23h63v11h-63zm-29 0h17v11h-17z" fill="url(#linear-gradient-7)" data-original="url(#linear-gradient-7)" style=""/><path xmlns="http://www.w3.org/2000/svg" d="m456 48h-400a46 46 0 0 0 -46 46v324a46 46 0 0 0 46 46h400a46 46 0 0 0 46-46v-324a46 46 0 0 0 -46-46zm-276 44.868v-32.868h119v32.868a21.132 21.132 0 0 1 -21.132 21.132h-105.377a32.54 32.54 0 0 0 7.509-21.132zm310 324.95a34.2 34.2 0 0 1 -34 34.182h-400a34.2 34.2 0 0 1 -34-34.182v-291.818h28a6 6 0 0 0 0-12h-28v-19.818a34.2 34.2 0 0 1 34-34.182h112v32.869a21.131 21.131 0 0 1 -21.131 21.131h-54.869a6 6 0 0 0 0 12h398zm0-303.818h-186.97c4.812-6 7.97-13.048 7.97-21.132v-32.868h145a34.2 34.2 0 0 1 34 34.182z" fill="url(#linear-gradient-8)" data-original="url(#linear-gradient-8)" style="" class=""/><path xmlns="http://www.w3.org/2000/svg" d="m70.546 87.161a8.182 8.182 0 1 0 -8.182 8.182 8.191 8.191 0 0 0 8.182-8.182z" fill="url(#linear-gradient-9)" data-original="url(#linear-gradient-9)" style=""/><path xmlns="http://www.w3.org/2000/svg" d="m95.091 95.343a8.182 8.182 0 1 0 -8.182-8.182 8.191 8.191 0 0 0 8.182 8.182z" fill="url(#linear-gradient-10)" data-original="url(#linear-gradient-10)" style=""/><path xmlns="http://www.w3.org/2000/svg" d="m127.819 95.343a8.182 8.182 0 1 0 -8.182-8.182 8.191 8.191 0 0 0 8.182 8.182z" fill="url(#linear-gradient-11)" data-original="url(#linear-gradient-11)" style=""/><path xmlns="http://www.w3.org/2000/svg" d="m207.106 78.979a8.182 8.182 0 1 0 8.182 8.182 8.191 8.191 0 0 0 -8.182-8.182z" fill="url(#linear-gradient-12)" data-original="url(#linear-gradient-12)" style=""/><path xmlns="http://www.w3.org/2000/svg" d="m239.833 78.979a8.182 8.182 0 1 0 8.182 8.182 8.191 8.191 0 0 0 -8.182-8.182z" fill="url(#linear-gradient-13)" data-original="url(#linear-gradient-13)" style=""/><path xmlns="http://www.w3.org/2000/svg" d="m280.743 87.161a8.182 8.182 0 1 0 -8.182 8.182 8.191 8.191 0 0 0 8.182-8.182z" fill="url(#linear-gradient-14)" data-original="url(#linear-gradient-14)" style=""/><g xmlns="http://www.w3.org/2000/svg" fill="url(#linear-gradient-15)"><path d="m44 149.538a6 6 0 0 0 -6 6v6.295a6 6 0 0 0 12 0v-6.295a6 6 0 0 0 -6-6z" fill=""/><path d="m44 174.833a6 6 0 0 0 -6 6v116a6 6 0 0 0 12 0v-116a6 6 0 0 0 -6-6z" fill=""/></g></g></svg>
