<?xml version="1.0"?>
<svg xmlns="http://www.w3.org/2000/svg" xmlns:xlink="http://www.w3.org/1999/xlink" xmlns:svgjs="http://svgjs.com/svgjs" version="1.1" width="512" height="512" x="0" y="0" viewBox="0 0 480 480" style="enable-background:new 0 0 512 512" xml:space="preserve" class=""><g>
<g xmlns="http://www.w3.org/2000/svg">
	
		<linearGradient id="SVGID_1_" gradientUnits="userSpaceOnUse" x1="-26.875" y1="557.155" x2="-26.875" y2="619.69" gradientTransform="matrix(8 0 0 -8 454.9999 4941)"><stop stop-opacity="1" stop-color="#42445a" offset="0"/><stop stop-opacity="1" stop-color="#fffc00" offset="1"/></linearGradient>
	<path style="fill:url(#SVGID_1_);" d="M472,416h-8V168c0-4.418-3.582-8-8-8H24c-4.418,0-8,3.582-8,8v248H8c-4.418,0-8,3.582-8,8v16   c0.026,22.08,17.92,39.974,40,40h400c22.08-0.026,39.974-17.92,40-40v-16C480,419.582,476.418,416,472,416z M32,176h416v240H304   c-2.123,0.011-4.158,0.856-5.664,2.352L284.688,432h-89.376l-13.648-13.648c-1.507-1.496-3.541-2.341-5.664-2.352H32L32,176z    M464,440c0,13.255-10.745,24-24,24H40c-13.255,0-24-10.745-24-24v-8h156.688l13.656,13.656c1.5,1.5,3.534,2.344,5.656,2.344h96   c2.122,0,4.156-0.844,5.656-2.344L307.312,432H464V440z" fill=""/>
	
		<linearGradient id="SVGID_2_" gradientUnits="userSpaceOnUse" x1="-26.875" y1="557.155" x2="-26.875" y2="619.69" gradientTransform="matrix(8 0 0 -8 454.9999 4941)"><stop stop-opacity="1" stop-color="#42445a" offset="0"/><stop stop-opacity="1" stop-color="#e7b617" offset="1"/></linearGradient>
	<path style="fill:url(#SVGID_2_);" d="M176.624,346.28l96.44-88.408l96,55.912L440,242.832V184H40v184.36l80.2-62.4L176.624,346.28   z M56,335.64V200h368v36.208l-57.528,57.544l-95.536-55.624l-95.56,87.592L119.8,286.024L56,335.64z" fill=""/>
	
		<linearGradient id="SVGID_3_" gradientUnits="userSpaceOnUse" x1="-26.875" y1="557.155" x2="-26.875" y2="619.69" gradientTransform="matrix(8 0 0 -8 454.9999 4941)"><stop stop-opacity="1" stop-color="#42445a" offset="0"/><stop stop-opacity="1" stop-color="#6b72bc" offset="1"/></linearGradient>
	<path style="fill:url(#SVGID_3_);" d="M112,152c4.418,0,8-3.582,8-8v-17.224l27.8-4.64c3.194-0.537,5.749-2.947,6.472-6.104   c2.15-9.41,5.863-18.394,10.984-26.576c1.727-2.751,1.619-6.272-0.272-8.912l-16.376-22.888l13.048-13.048l22.888,16.376   c2.64,1.891,6.161,1.999,8.912,0.272c8.173-5.118,17.145-8.831,26.544-10.984c3.157-0.723,5.567-3.278,6.104-6.472l4.672-27.8   h18.448l4.64,27.8c0.537,3.194,2.947,5.749,6.104,6.472c9.41,2.15,18.394,5.863,26.576,10.984c2.751,1.727,6.272,1.619,8.912-0.272   l22.888-16.376l13.048,13.048l-16.376,22.888c-1.891,2.64-1.999,6.161-0.272,8.912c5.118,8.173,8.831,17.145,10.984,26.544   c0.723,3.157,3.278,5.567,6.472,6.104l27.8,4.64V144c0,4.418,3.582,8,8,8s8-3.582,8-8v-24c-0.001-3.908-2.826-7.243-6.68-7.888   L340,107.2c-2.141-7.515-5.131-14.762-8.912-21.6l17.288-24.168c2.275-3.184,1.913-7.547-0.856-10.312l-22.64-22.648   c-2.767-2.767-7.13-3.125-10.312-0.848L290.4,44.936c-6.837-3.789-14.084-6.787-21.6-8.936l-4.904-29.344   C263.24,2.808,259.903-0.005,256,0h-32c-3.908,0.001-7.243,2.826-7.888,6.68L211.2,36c-7.515,2.141-14.762,5.131-21.6,8.912   l-24.144-17.264c-3.182-2.277-7.545-1.919-10.312,0.848l-22.648,22.648c-2.767,2.767-3.125,7.13-0.848,10.312L148.936,85.6   c-3.789,6.837-6.787,14.084-8.936,21.6l-29.344,4.904c-3.848,0.656-6.661,3.993-6.656,7.896v24C104,148.418,107.582,152,112,152   L112,152z" fill=""/>
	
		<linearGradient id="SVGID_4_" gradientUnits="userSpaceOnUse" x1="-26.875" y1="557.155" x2="-26.875" y2="619.69" gradientTransform="matrix(8 0 0 -8 454.9999 4941)"><stop stop-opacity="1" stop-color="#42445a" offset="0"/><stop stop-opacity="1" stop-color="#d75252" offset="1"/></linearGradient>
	<path style="fill:url(#SVGID_4_);" d="M288,136c0,4.418,3.582,8,8,8s8-3.582,8-8c0-35.346-28.654-64-64-64s-64,28.654-64,64   c0,4.418,3.582,8,8,8s8-3.582,8-8c0-26.51,21.49-48,48-48S288,109.49,288,136z" fill=""/>
	
		<linearGradient id="SVGID_5_" gradientUnits="userSpaceOnUse" x1="-26.875" y1="557.155" x2="-26.875" y2="619.69" gradientTransform="matrix(8 0 0 -8 454.9999 4941)"><stop stop-opacity="1" stop-color="#42445a" offset="0"/><stop stop-opacity="1" stop-color="#aaa252" offset="1"/></linearGradient>
	<path style="fill:url(#SVGID_5_);" d="M208,136c0,4.418,3.582,8,8,8s8-3.582,8-8c0-8.837,7.163-16,16-16c8.837,0,16,7.163,16,16   c0,4.418,3.582,8,8,8s8-3.582,8-8c0-17.673-14.327-32-32-32S208,118.327,208,136z" fill=""/>
	
		<linearGradient id="SVGID_6_" gradientUnits="userSpaceOnUse" x1="-26.875" y1="557.155" x2="-26.875" y2="619.69" gradientTransform="matrix(8 0 0 -8 454.9999 4941)"><stop stop-opacity="1" stop-color="#42445a" offset="0"/><stop stop-opacity="1" stop-color="#ddda08" offset="1"/></linearGradient>
	<path style="fill:url(#SVGID_6_);" d="M440,400v-8V272h-16v120h-16v-88h-16v88h-16v-64h-16v64h-16v-80h-16v80h-16v-96h-16v96h-16   V280h-16v112h-16v-80h-16v80h-16v-48h-16v48h-16v-32h-16v32h-16v-48h-16v48h-16v-56h-16v56H88v-32H72v32H56v-8H40v8v8v8h400V400z" fill=""/>
</g>
<g xmlns="http://www.w3.org/2000/svg">
</g>
<g xmlns="http://www.w3.org/2000/svg">
</g>
<g xmlns="http://www.w3.org/2000/svg">
</g>
<g xmlns="http://www.w3.org/2000/svg">
</g>
<g xmlns="http://www.w3.org/2000/svg">
</g>
<g xmlns="http://www.w3.org/2000/svg">
</g>
<g xmlns="http://www.w3.org/2000/svg">
</g>
<g xmlns="http://www.w3.org/2000/svg">
</g>
<g xmlns="http://www.w3.org/2000/svg">
</g>
<g xmlns="http://www.w3.org/2000/svg">
</g>
<g xmlns="http://www.w3.org/2000/svg">
</g>
<g xmlns="http://www.w3.org/2000/svg">
</g>
<g xmlns="http://www.w3.org/2000/svg">
</g>
<g xmlns="http://www.w3.org/2000/svg">
</g>
<g xmlns="http://www.w3.org/2000/svg">
</g>
</g></svg>
